version 1
nodes
  0 "Bone04" -1
  1 "Bone_Righthand" 0
  2 "Bone26" 1
  3 "Bone27" 2
  4 "Bone28" 3
  5 "Bone29" 4
  6 "Bone31" 2
  7 "Bone32" 6
  8 "Bone33" 7
  9 "Bone35" 2
 10 "Bone36" 9
 11 "Bone37" 10
 12 "Bone39" 2
 13 "Bone40" 12
 14 "Bone41" 13
 15 "Bone43" 2
 16 "Bone44" 15
 17 "Bone45" 16
 18 "Bone01" -1
 19 "Bone_Lefthand" 18
 20 "Bone 04" 19
 21 "Bone09" 20
 22 "Bone10" 21
 23 "Bone11" 22
 24 "Bone13" 20
 25 "Bone14" 24
 26 "Bone15" 25
 27 "Bone17" 20
 28 "Bone18" 27
 29 "Bone19" 28
 30 "Bone21" 20
 31 "Bone22" 30
 32 "Bone23" 31
 33 "Bone05" 20
 34 "Bone06" 33
 35 "Bone07" 34
 36 "USP" 19
 37 "Bone02" 36
 38 "USP_Slide-handle" 37
 39 "USP_Magazine-handle" 37
 40 "USP_Trigger-Handle" 37
end
skeleton
time 0
  0 -3.820917 -18.377752 -0.681956 -0.554979 0.255020 0.648760
  1 0.089929 -8.543163 0.000000 0.512980 0.031489 0.240363
  2 0.000000 -0.359713 0.000000 0.000000 0.000000 0.000000
  3 -0.308254 -0.007814 0.307166 -0.145110 -0.159878 -2.467082
  4 1.978378 0.019543 0.000000 -0.087921 -0.056961 -0.023672
  5 0.982426 0.003186 0.000000 0.000000 0.000000 0.418879
  6 -0.827563 -2.508973 -0.277656 -1.396263 0.000000 0.000000
  7 0.000000 -1.292971 0.000000 -0.445059 0.000000 0.000000
  8 0.000000 -0.752466 0.000000 -0.445059 0.000000 0.000000
  9 -0.170479 -2.636147 -0.277655 -1.692969 0.000000 0.000000
 10 0.010599 -1.261177 0.000001 -0.253073 0.000000 0.000000
 11 -0.000001 -0.943233 -0.000001 -0.532326 0.000000 0.000000
 12 0.444213 -2.561960 -0.277655 -1.727307 -0.046226 -0.024599
 13 0.021022 -1.208186 0.000000 -0.427606 0.000000 0.000000
 14 0.010597 -0.741867 -0.000001 -0.453786 0.000000 0.000000
 15 1.047445 -2.222821 -0.277655 -1.508123 -0.078971 -0.038609
 16 0.000000 -0.996223 -0.000001 -0.863938 0.000000 0.000000
 17 -0.000001 -0.614690 0.000000 -0.523599 0.000000 0.000000
 18 4.608666 -4.829769 1.302325 -0.774287 -1.331381 0.567332
 19 0.000000 -8.563283 0.000000 0.347509 -0.125220 -0.169570
 20 -0.003480 -0.404829 0.000000 0.000000 0.000000 0.000000
 21 -1.123359 -2.195093 -0.278957 -0.933751 0.000000 -0.087266
 22 0.010772 -0.963791 0.000000 -0.610865 0.000000 0.000000
 23 -0.010412 -0.631916 0.000000 -1.213004 0.000000 0.000000
 24 -0.519309 -2.501155 -0.278957 -1.003564 0.000000 -0.122173
 25 -0.010598 -1.208185 0.000000 -1.090831 0.000000 0.000000
 26 0.000000 -0.763066 0.000000 -1.343903 0.000000 0.000000
 27 0.105981 -2.607134 -0.278957 -0.890118 0.000000 -0.148353
 28 0.000000 -1.250579 0.000000 -1.213004 0.000000 0.000000
 29 0.000000 -0.932634 0.000000 -1.483530 0.000000 0.000000
 30 0.763064 -2.490556 -0.278957 -0.235619 0.000000 0.130900
 31 -0.012322 -1.280917 0.000000 -0.349066 0.000000 0.000000
 32 -0.001697 -0.749371 0.000000 -0.593412 0.000000 0.000000
 33 0.354567 0.016267 0.318133 0.342077 -0.443527 -1.083976
 34 1.887165 0.012878 0.000000 -0.305433 0.000000 -0.401426
 35 1.001874 -0.000270 0.000000 0.000000 0.000000 -0.488692
 36 0.022535 -3.459973 0.747359 -1.452340 1.442002 -1.446094
 37 0.000000 2.373979 0.699476 0.000000 0.000000 0.000000
 38 -0.000001 -0.959135 1.722198 0.000000 0.000000 0.000000
 39 0.000000 -1.759288 0.975027 0.000000 0.000000 0.000000
 40 -0.000966 -2.992972 0.968137 -0.270338 -0.001806 -0.009717
end
triangles
glock_mag.bmp
 39 2.383647 -16.798477 4.404276 0.003216 -0.922163 -0.386788 0.968750 0.820313
 39 2.407987 -15.492411 1.259073 0.002162 -0.964039 -0.265753 0.593750 0.078125
 39 3.043947 -16.799725 4.405816 0.003216 -0.922163 -0.386788 0.968750 0.820313
glock_mag.bmp
 39 3.043947 -16.799725 4.405816 0.003216 -0.922163 -0.386788 0.968750 0.820313
 39 2.407987 -15.492411 1.259073 0.002162 -0.964039 -0.265753 0.593750 0.078125
 39 3.078283 -15.493676 1.260333 0.001054 -0.990408 -0.138173 0.593750 0.078125
glock_mag.bmp
 39 2.407987 -15.492411 1.259073 0.002162 -0.964039 -0.265753 0.593750 0.078125
 39 2.409878 -15.490930 0.968911 -0.000053 -0.999946 -0.010393 0.593750 0.007813
 39 3.078283 -15.493676 1.260333 0.001054 -0.990408 -0.138173 0.593750 0.078125
glock_mag.bmp
 39 3.078283 -15.493676 1.260333 0.001054 -0.990408 -0.138173 0.593750 0.078125
 39 2.409878 -15.490930 0.968911 -0.000053 -0.999946 -0.010393 0.593750 0.007813
 39 3.080454 -15.492247 0.980167 -0.000053 -0.999946 -0.010393 0.593750 0.007813
glock_mag.bmp
 39 3.043947 -16.799725 4.405816 0.999963 -0.000143 0.008656 0.968750 0.820313
 39 3.078283 -15.493676 1.260333 0.999963 -0.000143 0.008656 0.593750 0.078125
 39 3.046090 -15.509692 4.402420 0.999963 -0.000143 0.008656 0.593750 0.820313
glock_mag.bmp
 39 3.046090 -15.509692 4.402420 0.999963 -0.000143 0.008656 0.593750 0.820313
 39 3.078283 -15.493676 1.260333 0.999963 -0.000143 0.008656 0.593750 0.078125
 39 3.082727 -14.132215 0.977129 0.999963 -0.000143 0.008656 0.203125 0.007813
glock_mag.bmp
 39 3.078283 -15.493676 1.260333 0.999963 -0.000143 0.008656 0.593750 0.078125
 39 3.080454 -15.492247 0.980167 0.999963 -0.000143 0.008656 0.593750 0.007813
 39 3.082727 -14.132215 0.977129 0.999963 -0.000143 0.008656 0.203125 0.007813
glock_mag.bmp
 39 2.409878 -15.490930 0.968911 -0.999963 0.000143 -0.008656 0.593750 0.007813
 39 2.407987 -15.492411 1.259073 -0.999963 0.000143 -0.008656 0.593750 0.078125
 39 2.412431 -14.130950 0.975869 -0.999963 0.000143 -0.008656 0.203125 0.007813
glock_mag.bmp
 39 2.412431 -14.130950 0.975869 -0.999963 0.000143 -0.008656 0.203125 0.007813
 39 2.407987 -15.492411 1.259073 -0.999963 0.000143 -0.008656 0.593750 0.078125
 39 2.376073 -15.508479 4.411156 -0.999963 0.000143 -0.008656 0.593750 0.820313
glock_mag.bmp
 39 2.407987 -15.492411 1.259073 -0.999963 0.000143 -0.008656 0.593750 0.078125
 39 2.383647 -16.798477 4.404276 -0.999963 0.000143 -0.008656 0.968750 0.820313
 39 2.376073 -15.508479 4.411156 -0.999963 0.000143 -0.008656 0.593750 0.820313
glock_mag.bmp
 39 3.082727 -14.132215 0.977129 0.008656 0.001093 -0.999962 0.203125 0.007813
 39 3.080454 -15.492247 0.980167 0.008656 0.001093 -0.999962 0.593750 0.007813
 39 2.412431 -14.130950 0.975869 0.008656 0.001093 -0.999962 0.203125 0.007813
glock_mag.bmp
 39 2.412431 -14.130950 0.975869 0.008656 0.001093 -0.999962 0.203125 0.007813
 39 3.080454 -15.492247 0.980167 0.008656 0.001093 -0.999962 0.593750 0.007813
 39 2.409878 -15.490930 0.968911 0.008656 0.001093 -0.999962 0.593750 0.007813
glock_mag.bmp
 39 3.046090 -15.509692 4.402420 -0.003089 0.928139 0.372220 0.406250 0.890625
 39 3.082727 -14.132215 0.977129 -0.003089 0.928139 0.372220 0.015625 0.078125
 39 2.376073 -15.508479 4.411156 -0.003089 0.928139 0.372220 0.593750 0.820313
glock_mag.bmp
 39 2.376073 -15.508479 4.411156 -0.003089 0.928139 0.372220 0.593750 0.820313
 39 3.082727 -14.132215 0.977129 -0.003089 0.928139 0.372220 0.015625 0.078125
 39 2.412431 -14.130950 0.975869 -0.003089 0.928139 0.372220 0.203125 0.007813
glock_mag.bmp
 39 3.043947 -16.799725 4.405816 -0.008656 -0.001393 0.999962 0.968750 0.984375
 39 3.046090 -15.509692 4.402420 -0.008656 -0.001393 0.999962 0.593750 0.984375
 39 2.383647 -16.798477 4.404276 -0.008656 -0.001393 0.999962 0.968750 0.820313
glock_mag.bmp
 39 2.383647 -16.798477 4.404276 -0.008656 -0.001393 0.999962 0.968750 0.820313
 39 3.046090 -15.509692 4.402420 -0.008656 -0.001393 0.999962 0.593750 0.984375
 39 2.376073 -15.508479 4.411156 -0.008656 -0.001393 0.999962 0.593750 0.820313
glock_slide.bmp
 38 2.276524 -14.389687 4.717013 -0.894334 0.447342 -0.007253 0.101563 0.015625
 38 2.274555 -21.209757 4.711828 -0.999963 0.000143 -0.008656 0.992188 0.015625
 38 2.269733 -17.001129 4.993822 -0.999963 0.000143 -0.008656 0.441406 0.187500
glock_slide.bmp
 38 2.269733 -17.001129 4.993822 -0.999963 0.000143 -0.008656 0.441406 0.187500
 38 2.274555 -21.209757 4.711828 -0.999963 0.000143 -0.008656 0.992188 0.015625
 38 2.267499 -18.191111 4.987733 -0.999963 0.000143 -0.008656 0.605469 0.187500
glock_slide.bmp
 38 2.274555 -21.209757 4.711828 -0.999963 0.000143 -0.008656 0.992188 0.015625
 38 2.269655 -21.212513 5.252169 -0.966453 -0.000152 0.256842 0.992188 0.453125
 38 2.267499 -18.191111 4.987733 -0.999963 0.000143 -0.008656 0.605469 0.187500
glock_slide.bmp
 38 2.267499 -18.191111 4.987733 -0.999963 0.000143 -0.008656 0.605469 0.187500
 38 2.269655 -21.212513 5.252169 -0.966453 -0.000152 0.256842 0.992188 0.453125
 38 2.264770 -18.192438 5.247908 -0.966453 -0.000152 0.256842 0.605469 0.453125
glock_slide.bmp
 38 2.269655 -21.212513 5.252169 -0.966453 -0.000152 0.256842 0.992188 0.453125
 38 2.348651 -18.193300 5.385615 -0.501802 -0.000679 0.864982 0.605469 0.500000
 38 2.264770 -18.192438 5.247908 -0.966453 -0.000152 0.256842 0.605469 0.453125
glock_slide.bmp
 38 2.590791 -17.003733 5.384994 -0.008956 -0.000693 0.999960 0.441406 0.593750
 38 2.591054 -16.863735 5.385710 -0.008956 -0.000693 0.999960 0.429688 0.593750
 38 2.340610 -17.003248 5.381987 -0.400838 -0.000648 0.916149 0.441406 0.500000
glock_slide.bmp
 38 2.340610 -17.003248 5.381987 -0.400838 -0.000648 0.916149 0.441406 0.500000
 38 2.591054 -16.863735 5.385710 -0.008956 -0.000693 0.999960 0.429688 0.593750
 38 3.065786 -14.394638 5.395203 0.163656 0.398599 0.902405 0.105469 0.937500
glock_slide.bmp
 38 2.591054 -16.863735 5.385710 -0.008956 -0.000693 0.999960 0.429688 0.593750
 38 2.881220 -16.864290 5.387598 -0.008956 -0.000693 0.999960 0.425781 0.796875
 38 3.065786 -14.394638 5.395203 0.163656 0.398599 0.902405 0.105469 0.937500
glock_slide.bmp
 38 3.065786 -14.394638 5.395203 0.163656 0.398599 0.902405 0.105469 0.937500
 38 2.881220 -16.864290 5.387598 -0.008956 -0.000693 0.999960 0.425781 0.796875
 38 3.061166 -17.004652 5.391845 0.486439 -0.000621 0.873714 0.441406 0.937500
glock_slide.bmp
 38 2.881220 -16.864290 5.387598 -0.008956 -0.000693 0.999960 0.425781 0.796875
 38 2.880957 -17.004288 5.386882 -0.008956 -0.000693 0.999960 0.441406 0.796875
 38 3.061166 -17.004652 5.391845 0.486439 -0.000621 0.873714 0.441406 0.937500
glock_slide.bmp
 38 3.145071 -21.201422 4.717543 0.008964 -0.999959 -0.000915 0.988281 0.015625
 38 3.140171 -21.204176 5.257885 0.008964 -0.999959 -0.000915 0.988281 0.453125
 38 2.274555 -21.209757 4.711828 0.008964 -0.999959 -0.000915 0.992188 0.015625
glock_slide.bmp
 38 2.274555 -21.209757 4.711828 0.008964 -0.999959 -0.000915 0.992188 0.015625
 38 3.140171 -21.204176 5.257885 0.008964 -0.999959 -0.000915 0.988281 0.453125
 38 2.269655 -21.212513 5.252169 0.008964 -0.999959 -0.000915 0.992188 0.453125
glock_slide.bmp
 38 3.140171 -21.204176 5.257885 0.008964 -0.999959 -0.000915 0.988281 0.453125
 38 3.063836 -21.204710 5.390069 0.008964 -0.999959 -0.000915 0.988281 0.500000
 38 2.269655 -21.212513 5.252169 0.008964 -0.999959 -0.000915 0.992188 0.453125
glock_slide.bmp
 38 2.269655 -21.212513 5.252169 0.008964 -0.999959 -0.000915 0.992188 0.453125
 38 3.063836 -21.204710 5.390069 0.008964 -0.999959 -0.000915 0.988281 0.500000
 38 2.343261 -21.213306 5.380159 0.008964 -0.999959 -0.000915 0.992188 0.500000
glock_slide.bmp
 38 2.271624 -14.392443 5.257355 -0.670746 0.719768 0.178980 0.101563 0.437500
 38 3.147021 -14.391350 4.722678 0.000034 0.999999 0.001093 0.000000 0.015625
 38 2.276524 -14.389687 4.717013 -0.894334 0.447342 -0.007253 0.101563 0.015625
glock_slide.bmp
 38 2.271624 -14.392443 5.257355 -0.670746 0.719768 0.178980 0.101563 0.437500
 38 3.142121 -14.394106 5.263019 0.712196 0.554248 0.430798 0.000000 0.437500
 38 3.147021 -14.391350 4.722678 0.000034 0.999999 0.001093 0.000000 0.015625
glock_slide.bmp
 38 2.271624 -14.392443 5.257355 -0.670746 0.719768 0.178980 0.101563 0.437500
 38 3.065786 -14.394638 5.395203 0.163656 0.398599 0.902405 0.023438 0.500000
 38 3.142121 -14.394106 5.263019 0.712196 0.554248 0.430798 0.000000 0.437500
glock_slide.bmp
 38 2.271624 -14.392443 5.257355 -0.670746 0.719768 0.178980 0.101563 0.437500
 38 2.345230 -14.393235 5.385345 -0.434955 0.497956 0.750236 0.085938 0.500000
 38 3.065786 -14.394638 5.395203 0.163656 0.398599 0.902405 0.023438 0.500000
glock_slide.bmp
 38 2.343261 -21.213306 5.380159 -0.501802 -0.000679 0.864982 0.992188 0.500000
 38 3.063836 -21.204710 5.390069 0.315606 -0.000980 0.948890 0.988281 0.937500
 38 2.348651 -18.193300 5.385615 -0.501802 -0.000679 0.864982 0.605469 0.500000
glock_slide.bmp
 38 2.348651 -18.193300 5.385615 -0.501802 -0.000679 0.864982 0.605469 0.500000
 38 3.063836 -21.204710 5.390069 0.315606 -0.000980 0.948890 0.988281 0.937500
 38 3.069226 -18.184702 5.395524 0.708136 -0.000767 0.706076 0.605469 0.937500
glock_slide.bmp
 38 3.063836 -21.204710 5.390069 0.315606 -0.000980 0.948890 0.988281 0.937500
 38 3.140171 -21.204176 5.257885 0.856497 -0.000879 0.516152 0.988281 0.984375
 38 3.069226 -18.184702 5.395524 0.708136 -0.000767 0.706076 0.605469 0.937500
glock_slide.bmp
 38 3.069226 -18.184702 5.395524 0.708136 -0.000767 0.706076 0.605469 0.937500
 38 3.140171 -21.204176 5.257885 0.856497 -0.000879 0.516152 0.988281 0.984375
 38 3.142121 -14.394106 5.263019 0.712196 0.554248 0.430798 0.109375 0.984375
glock_slide.bmp
 38 2.271624 -14.392443 5.257355 -0.670746 0.719768 0.178980 0.101563 0.453125
 38 2.340610 -17.003248 5.381987 -0.400838 -0.000648 0.916149 0.441406 0.500000
 38 2.345230 -14.393235 5.385345 -0.434955 0.497956 0.750236 0.101563 0.500000
glock_slide.bmp
 38 2.271624 -14.392443 5.257355 -0.670746 0.719768 0.178980 0.101563 0.453125
 38 2.267004 -17.002455 5.253997 -0.966453 -0.000152 0.256842 0.441406 0.453125
 38 2.340610 -17.003248 5.381987 -0.400838 -0.000648 0.916149 0.441406 0.500000
glock_slide.bmp
 38 2.271624 -14.392443 5.257355 -0.670746 0.719768 0.178980 0.101563 0.453125
 38 2.269733 -17.001129 4.993822 -0.999963 0.000143 -0.008656 0.441406 0.187500
 38 2.267004 -17.002455 5.253997 -0.966453 -0.000152 0.256842 0.441406 0.453125
glock_slide.bmp
 38 2.271624 -14.392443 5.257355 -0.670746 0.719768 0.178980 0.101563 0.453125
 38 2.276524 -14.389687 4.717013 -0.894334 0.447342 -0.007253 0.101563 0.015625
 38 2.269733 -17.001129 4.993822 -0.999963 0.000143 -0.008656 0.441406 0.187500
glock_slide.bmp
 38 3.070258 -17.002670 5.001443 -0.008956 -0.000693 0.999960 0.464844 0.656250
 38 2.880053 -17.002291 4.996759 -0.008956 -0.000693 0.999960 0.492188 0.656250
 38 3.068024 -18.192654 4.995355 -0.008956 -0.000693 0.999960 0.464844 0.765625
glock_slide.bmp
 38 3.068024 -18.192654 4.995355 -0.008956 -0.000693 0.999960 0.464844 0.765625
 38 2.880053 -17.002291 4.996759 -0.008956 -0.000693 0.999960 0.492188 0.656250
 38 2.267499 -18.191111 4.987733 -0.008956 -0.000693 0.999960 0.585938 0.765625
glock_slide.bmp
 38 2.880053 -17.002291 4.996759 -0.008956 -0.000693 0.999960 0.492188 0.656250
 38 2.589887 -17.001736 4.994872 -0.008956 -0.000693 0.999960 0.542969 0.656250
 38 2.267499 -18.191111 4.987733 -0.008956 -0.000693 0.999960 0.585938 0.765625
glock_slide.bmp
 38 2.267499 -18.191111 4.987733 -0.008956 -0.000693 0.999960 0.585938 0.765625
 38 2.589887 -17.001736 4.994872 -0.008956 -0.000693 0.999960 0.542969 0.656250
 38 2.269733 -17.001129 4.993822 -0.008956 -0.000693 0.999960 0.585938 0.656250
glock_slide.bmp
 38 2.348651 -18.193300 5.385615 0.000034 0.999999 0.001093 0.574219 0.765625
 38 3.069226 -18.184702 5.395524 0.000034 0.999999 0.001093 0.464844 0.765625
 38 2.264770 -18.192438 5.247908 0.000034 0.999999 0.001093 0.585938 0.718750
glock_slide.bmp
 38 2.264770 -18.192438 5.247908 0.000034 0.999999 0.001093 0.585938 0.718750
 38 3.069226 -18.184702 5.395524 0.000034 0.999999 0.001093 0.464844 0.765625
 38 2.267499 -18.191111 4.987733 0.000034 0.999999 0.001093 0.585938 0.640625
glock_slide.bmp
 38 3.069226 -18.184702 5.395524 0.000034 0.999999 0.001093 0.464844 0.765625
 38 3.068024 -18.192654 4.995355 0.000034 0.999999 0.001093 0.464844 0.640625
 38 2.267499 -18.191111 4.987733 0.000034 0.999999 0.001093 0.585938 0.640625
glock_slide.bmp
 38 2.269733 -17.001129 4.993822 0.008964 -0.999959 -0.000915 0.464844 0.640625
 38 2.589887 -17.001736 4.994872 0.008964 -0.999959 -0.000915 0.507813 0.640625
 38 2.267004 -17.002455 5.253997 0.008964 -0.999959 -0.000915 0.464844 0.718750
glock_slide.bmp
 38 2.267004 -17.002455 5.253997 0.008964 -0.999959 -0.000915 0.464844 0.718750
 38 2.589887 -17.001736 4.994872 0.008964 -0.999959 -0.000915 0.507813 0.640625
 38 2.340610 -17.003248 5.381987 0.008964 -0.999959 -0.000915 0.476563 0.765625
glock_slide.bmp
 38 2.589887 -17.001736 4.994872 0.008964 -0.999959 -0.000915 0.507813 0.640625
 38 2.590791 -17.003733 5.384994 0.008964 -0.999959 -0.000915 0.507813 0.765625
 38 2.340610 -17.003248 5.381987 0.008964 -0.999959 -0.000915 0.476563 0.765625
glock_slide.bmp
 38 3.147021 -14.391350 4.722678 0.008656 0.000693 -0.999962 0.105469 0.015625
 38 3.145071 -21.201422 4.717543 0.008656 0.000693 -0.999962 0.988281 0.015625
 38 2.276524 -14.389687 4.717013 0.008656 0.000693 -0.999962 0.105469 0.015625
glock_slide.bmp
 38 2.276524 -14.389687 4.717013 0.008656 0.000693 -0.999962 0.105469 0.015625
 38 3.145071 -21.201422 4.717543 0.008656 0.000693 -0.999962 0.988281 0.015625
 38 2.274555 -21.209757 4.711828 0.008656 0.000693 -0.999962 0.992188 0.015625
glock_slide.bmp
 38 3.068024 -18.192654 4.995355 -0.999963 0.000143 -0.008656 0.585938 0.640625
 38 3.069226 -18.184702 5.395524 -0.999963 0.000143 -0.008656 0.585938 0.765625
 38 3.070258 -17.002670 5.001443 -0.999963 0.000143 -0.008656 0.476563 0.640625
glock_slide.bmp
 38 3.070258 -17.002670 5.001443 -0.999963 0.000143 -0.008656 0.476563 0.640625
 38 3.069226 -18.184702 5.395524 -0.999963 0.000143 -0.008656 0.585938 0.765625
 38 3.061166 -17.004652 5.391845 -0.999963 0.000143 -0.008656 0.476563 0.765625
glock_slide.bmp
 38 2.591054 -16.863735 5.385710 -0.002872 -0.948739 0.316048 0.507813 0.765625
 38 2.589887 -17.001736 4.994872 -0.002872 -0.948739 0.316048 0.507813 0.640625
 38 2.881220 -16.864290 5.387598 -0.002872 -0.948739 0.316048 0.554688 0.765625
glock_slide.bmp
 38 2.881220 -16.864290 5.387598 -0.002872 -0.948739 0.316048 0.554688 0.765625
 38 2.589887 -17.001736 4.994872 -0.002872 -0.948739 0.316048 0.507813 0.640625
 38 2.880053 -17.002291 4.996759 -0.002872 -0.948739 0.316048 0.554688 0.640625
glock_slide.bmp
 38 3.145071 -21.201422 4.717543 0.999963 -0.000143 0.008656 0.988281 0.015625
 38 3.147021 -14.391350 4.722678 0.999963 -0.000143 0.008656 0.105469 0.015625
 38 3.140171 -21.204176 5.257885 0.999963 -0.000143 0.008656 0.988281 0.453125
glock_slide.bmp
 38 3.140171 -21.204176 5.257885 0.999963 -0.000143 0.008656 0.988281 0.453125
 38 3.147021 -14.391350 4.722678 0.999963 -0.000143 0.008656 0.105469 0.015625
 38 3.142121 -14.394106 5.263019 0.999963 -0.000143 0.008656 0.105469 0.453125
glock_slide.bmp
 38 2.880053 -17.002291 4.996759 0.008964 -0.999959 -0.000915 0.554688 0.640625
 38 3.070258 -17.002670 5.001443 0.008964 -0.999959 -0.000915 0.585938 0.640625
 38 2.880957 -17.004288 5.386882 0.008964 -0.999959 -0.000915 0.554688 0.765625
glock_slide.bmp
 38 2.880957 -17.004288 5.386882 0.008964 -0.999959 -0.000915 0.554688 0.765625
 38 3.070258 -17.002670 5.001443 0.008964 -0.999959 -0.000915 0.585938 0.640625
 38 3.061166 -17.004652 5.391845 0.008964 -0.999959 -0.000915 0.585938 0.765625
glock_slide.bmp
 38 3.065786 -14.394638 5.395203 0.163656 0.398599 0.902405 0.109375 0.937500
 38 3.061166 -17.004652 5.391845 0.486439 -0.000621 0.873714 0.441406 0.937500
 38 3.142121 -14.394106 5.263019 0.712196 0.554248 0.430798 0.109375 0.984375
glock_slide.bmp
 38 3.142121 -14.394106 5.263019 0.712196 0.554248 0.430798 0.109375 0.984375
 38 3.061166 -17.004652 5.391845 0.486439 -0.000621 0.873714 0.441406 0.937500
 38 3.069226 -18.184702 5.395524 0.708136 -0.000767 0.706076 0.605469 0.937500
glock_slide.bmp
 38 2.590791 -17.003733 5.384994 0.999963 -0.000143 0.008656 0.574219 0.765625
 38 2.589887 -17.001736 4.994872 0.999963 -0.000143 0.008656 0.574219 0.640625
 38 2.591054 -16.863735 5.385710 0.999963 -0.000143 0.008656 0.585938 0.765625
glock_slide.bmp
 38 2.345230 -14.393235 5.385345 -0.434955 0.497956 0.750236 0.105469 0.500000
 38 2.340610 -17.003248 5.381987 -0.400838 -0.000648 0.916149 0.441406 0.500000
 38 3.065786 -14.394638 5.395203 0.163656 0.398599 0.902405 0.105469 0.937500
glock_slide.bmp
 38 2.269655 -21.212513 5.252169 -0.966453 -0.000152 0.256842 0.992188 0.453125
 38 2.343261 -21.213306 5.380159 -0.501802 -0.000679 0.864982 0.992188 0.500000
 38 2.348651 -18.193300 5.385615 -0.501802 -0.000679 0.864982 0.605469 0.500000
glock_slide.bmp
 38 2.880053 -17.002291 4.996759 -0.999963 0.000143 -0.008656 0.476563 0.640625
 38 2.880957 -17.004288 5.386882 -0.999963 0.000143 -0.008656 0.476563 0.765625
 38 2.881220 -16.864290 5.387598 -0.999963 0.000143 -0.008656 0.464844 0.765625
glock_base.bmp
 36 3.150792 -21.183657 4.205594 0.999963 -0.000143 0.008656 0.992188 0.851563
 36 3.153775 -17.062840 4.056743 0.999963 -0.000143 0.008656 0.468750 0.820313
 36 3.144774 -21.186205 4.705952 0.999963 -0.000143 0.008656 0.988281 0.984375
glock_base.bmp
 36 3.144774 -21.186205 4.705952 0.999963 -0.000143 0.008656 0.988281 0.984375
 36 3.153775 -17.062840 4.056743 0.999963 -0.000143 0.008656 0.468750 0.820313
 36 3.148539 -15.123057 4.106932 0.953116 0.295536 -0.065027 0.218750 0.812500
glock_base.bmp
 36 3.153775 -17.062840 4.056743 0.999963 -0.000143 0.008656 0.468750 0.820313
 36 3.157737 -16.851671 3.827631 0.999963 -0.000143 0.008656 0.433594 0.734375
 36 3.148539 -15.123057 4.106932 0.953116 0.295536 -0.065027 0.218750 0.812500
glock_base.bmp
 36 3.148539 -15.123057 4.106932 0.953116 0.295536 -0.065027 0.218750 0.812500
 36 3.157737 -16.851671 3.827631 0.999963 -0.000143 0.008656 0.433594 0.734375
 36 3.154855 -15.110560 3.616622 0.823992 0.554359 0.117142 0.218750 0.679688
glock_base.bmp
 36 3.157737 -16.851671 3.827631 0.999963 -0.000143 0.008656 0.433594 0.734375
 36 3.166272 -14.727053 2.928006 0.855531 0.453113 0.250511 0.171875 0.484375
 36 3.154855 -15.110560 3.616622 0.823992 0.554359 0.117142 0.218750 0.679688
glock_base.bmp
 36 3.154855 -15.110560 3.616622 0.823992 0.554359 0.117142 0.218750 0.679688
 36 3.166272 -14.727053 2.928006 0.855531 0.453113 0.250511 0.171875 0.484375
 36 2.714193 -14.809544 3.580479 -0.002806 0.940524 0.339715 0.152344 0.664063
glock_base.bmp
 36 3.166272 -14.727053 2.928006 0.855531 0.453113 0.250511 0.171875 0.484375
 36 2.716937 -14.466276 2.941917 -0.004467 0.847964 0.530035 0.105469 0.492188
 36 2.714193 -14.809544 3.580479 -0.002806 0.940524 0.339715 0.152344 0.664063
glock_base.bmp
 36 2.714193 -14.809544 3.580479 -0.002806 0.940524 0.339715 0.152344 0.664063
 36 2.716937 -14.466276 2.941917 -0.004467 0.847964 0.530035 0.105469 0.492188
 36 2.295495 -14.725338 2.912346 -0.859675 0.453240 0.235654 0.171875 0.484375
glock_base.bmp
 36 2.716937 -14.466276 2.941917 -0.004467 0.847964 0.530035 0.105469 0.492188
 36 2.298184 -14.262021 2.264403 -0.859675 0.453240 0.235654 0.109375 0.304688
 36 2.295495 -14.725338 2.912346 -0.859675 0.453240 0.235654 0.171875 0.484375
glock_base.bmp
 36 2.295495 -14.725338 2.912346 -0.859675 0.453240 0.235654 0.171875 0.484375
 36 2.298184 -14.262021 2.264403 -0.859675 0.453240 0.235654 0.109375 0.304688
 36 2.300085 -15.559143 1.697418 -0.979361 -0.190092 -0.068687 0.269531 0.148438
glock_base.bmp
 36 2.298184 -14.262021 2.264403 -0.859675 0.453240 0.235654 0.109375 0.304688
 36 2.308059 -15.556955 1.267033 -0.983524 -0.180566 -0.008711 0.273438 0.015625
 36 2.300085 -15.559143 1.697418 -0.979361 -0.190092 -0.068687 0.269531 0.148438
glock_base.bmp
 36 2.300085 -15.559143 1.697418 -0.979361 -0.190092 -0.068687 0.269531 0.148438
 36 2.308059 -15.556955 1.267033 -0.983524 -0.180566 -0.008711 0.273438 0.015625
 36 2.429675 -15.899415 1.702040 -0.932978 -0.354716 -0.061067 0.316406 0.148438
glock_base.bmp
 36 2.308059 -15.556955 1.267033 -0.983524 -0.180566 -0.008711 0.273438 0.015625
 36 2.437369 -15.897176 1.261659 -0.934771 -0.355150 -0.008480 0.316406 0.015625
 36 2.429675 -15.899415 1.702040 -0.932978 -0.354716 -0.061067 0.316406 0.148438
glock_base.bmp
 36 2.950727 -16.718140 3.213858 0.999963 -0.000143 0.008656 0.414063 0.195313
 36 2.950554 -17.108238 3.231854 0.999963 -0.000143 0.008656 0.464844 0.203125
 36 2.955912 -17.047379 3.061951 0.999963 -0.000143 0.008656 0.460938 0.148438
glock_base.bmp
 36 2.955912 -17.047379 3.061951 0.999963 -0.000143 0.008656 0.460938 0.148438
 36 2.950554 -17.108238 3.231854 0.999963 -0.000143 0.008656 0.464844 0.203125
 36 2.953357 -18.557407 3.064221 0.999963 -0.000143 0.008656 0.644531 0.148438
glock_base.bmp
 36 2.950554 -17.108238 3.231854 0.999963 -0.000143 0.008656 0.464844 0.203125
 36 2.949255 -18.098326 3.246781 0.999963 -0.000143 0.008656 0.589844 0.195313
 36 2.953357 -18.557407 3.064221 0.999963 -0.000143 0.008656 0.644531 0.148438
glock_base.bmp
 36 2.953357 -18.557407 3.064221 0.999963 -0.000143 0.008656 0.644531 0.148438
 36 2.949255 -18.098326 3.246781 0.999963 -0.000143 0.008656 0.589844 0.195313
 36 2.952548 -18.429045 3.385036 0.999963 -0.000143 0.008656 0.636719 0.242188
glock_base.bmp
 36 2.949255 -18.098326 3.246781 0.999963 -0.000143 0.008656 0.589844 0.195313
 36 2.953668 -18.279202 3.415792 0.999963 -0.000143 0.008656 0.625000 0.242188
 36 2.952548 -18.429045 3.385036 0.999963 -0.000143 0.008656 0.636719 0.242188
glock_base.bmp
 36 2.952548 -18.429045 3.385036 0.999963 -0.000143 0.008656 0.636719 0.242188
 36 2.953668 -18.279202 3.415792 0.999963 -0.000143 0.008656 0.625000 0.242188
 36 2.944536 -18.451231 3.815319 0.999963 -0.000143 0.008656 0.640625 0.375000
glock_base.bmp
 36 2.953668 -18.279202 3.415792 0.999963 -0.000143 0.008656 0.625000 0.242188
 36 2.944837 -18.291233 3.816138 0.999963 -0.000143 0.008656 0.625000 0.375000
 36 2.944536 -18.451231 3.815319 0.999963 -0.000143 0.008656 0.640625 0.375000
glock_base.bmp
 36 2.944536 -18.451231 3.815319 0.999963 -0.000143 0.008656 0.640625 0.375000
 36 2.944837 -18.291233 3.816138 0.999963 -0.000143 0.008656 0.625000 0.375000
 36 2.943611 -18.682968 4.154285 0.890523 -0.000617 0.454939 0.660156 0.460938
glock_base.bmp
 36 2.944837 -18.291233 3.816138 0.999963 -0.000143 0.008656 0.625000 0.375000
 36 2.944813 -18.042976 4.157559 0.439455 -0.001041 0.898264 0.593750 0.460938
 36 2.943611 -18.682968 4.154285 0.890523 -0.000617 0.454939 0.660156 0.460938
glock_base.bmp
 36 2.943611 -18.682968 4.154285 0.890523 -0.000617 0.454939 0.660156 0.460938
 36 2.944813 -18.042976 4.157559 0.439455 -0.001041 0.898264 0.593750 0.460938
 36 2.483233 -18.682066 4.147154 -0.713201 -0.000671 0.700959 0.660156 0.460938
glock_base.bmp
 36 2.944813 -18.042976 4.157559 0.439455 -0.001041 0.898264 0.593750 0.460938
 36 2.484434 -18.042076 4.150428 -0.713201 -0.000671 0.700959 0.593750 0.460938
 36 2.483233 -18.682066 4.147154 -0.713201 -0.000671 0.700959 0.660156 0.460938
glock_base.bmp
 36 2.483233 -18.682066 4.147154 -0.713201 -0.000671 0.700959 0.660156 0.460938
 36 2.484434 -18.042076 4.150428 -0.713201 -0.000671 0.700959 0.593750 0.460938
 36 2.494454 -18.290350 3.808727 -0.999963 0.000143 -0.008656 0.625000 0.375000
glock_base.bmp
 36 2.492131 -16.549343 3.617711 -0.007180 -0.572397 0.819945 0.699219 0.648438
 36 2.500172 -17.107355 3.224444 -0.008019 -0.392123 0.919878 0.644531 0.648438
 36 2.952510 -16.550243 3.624842 -0.007180 -0.572397 0.819945 0.699219 0.796875
glock_base.bmp
 36 2.952510 -16.550243 3.624842 -0.007180 -0.572397 0.819945 0.699219 0.796875
 36 2.500172 -17.107355 3.224444 -0.008019 -0.392123 0.919878 0.644531 0.648438
 36 2.950554 -17.108238 3.231854 -0.008532 -0.185869 0.982537 0.644531 0.796875
glock_base.bmp
 36 2.500172 -17.107355 3.224444 -0.008019 -0.392123 0.919878 0.644531 0.648438
 36 2.498872 -18.097443 3.239370 -0.008329 0.256837 0.966419 0.597656 0.648438
 36 2.950554 -17.108238 3.231854 -0.008532 -0.185869 0.982537 0.644531 0.796875
glock_base.bmp
 36 2.950554 -17.108238 3.231854 -0.008532 -0.185869 0.982537 0.644531 0.796875
 36 2.498872 -18.097443 3.239370 -0.008329 0.256837 0.966419 0.597656 0.648438
 36 2.949255 -18.098326 3.246781 -0.007460 0.492958 0.870021 0.597656 0.796875
glock_base.bmp
 36 2.498872 -18.097443 3.239370 -0.008329 0.256837 0.966419 0.597656 0.648438
 36 2.493569 -18.278353 3.418656 -0.004467 0.847964 0.530035 0.539063 0.648438
 36 2.949255 -18.098326 3.246781 -0.007460 0.492958 0.870021 0.597656 0.796875
glock_base.bmp
 36 2.949255 -18.098326 3.246781 -0.007460 0.492958 0.870021 0.597656 0.796875
 36 2.493569 -18.278353 3.418656 -0.004467 0.847964 0.530035 0.539063 0.648438
 36 2.953668 -18.279202 3.415792 -0.002280 0.960190 0.279339 0.539063 0.796875
glock_base.bmp
 36 2.493569 -18.278353 3.418656 -0.004467 0.847964 0.530035 0.539063 0.648438
 36 2.494454 -18.290350 3.808727 0.001757 0.982412 -0.186720 0.480469 0.648438
 36 2.953668 -18.279202 3.415792 -0.002280 0.960190 0.279339 0.539063 0.796875
glock_base.bmp
 36 2.953668 -18.279202 3.415792 -0.002280 0.960190 0.279339 0.539063 0.796875
 36 2.494454 -18.290350 3.808727 0.001757 0.982412 -0.186720 0.480469 0.648438
 36 2.944837 -18.291233 3.816138 0.003607 0.915856 -0.401491 0.480469 0.796875
glock_base.bmp
 36 2.429675 -15.899415 1.702040 -0.932978 -0.354716 -0.061067 0.316406 0.148438
 36 2.417469 -16.850285 3.828328 -0.884919 -0.375388 -0.275686 0.433594 0.734375
 36 2.300085 -15.559143 1.697418 -0.979361 -0.190092 -0.068687 0.269531 0.148438
glock_base.bmp
 36 2.300085 -15.559143 1.697418 -0.979361 -0.190092 -0.068687 0.269531 0.148438
 36 2.417469 -16.850285 3.828328 -0.884919 -0.375388 -0.275686 0.433594 0.734375
 36 2.280191 -16.620459 3.913386 -0.986423 -0.128250 -0.102578 0.402344 0.773438
glock_base.bmp
 36 2.417469 -16.850285 3.828328 -0.884919 -0.375388 -0.275686 0.433594 0.734375
 36 2.279059 -16.962193 4.251789 -0.974137 -0.112153 -0.196159 0.457031 0.867188
 36 2.280191 -16.620459 3.913386 -0.986423 -0.128250 -0.102578 0.402344 0.773438
glock_base.bmp
 36 2.280191 -16.620459 3.913386 -0.986423 -0.128250 -0.102578 0.402344 0.773438
 36 2.279059 -16.962193 4.251789 -0.974137 -0.112153 -0.196159 0.457031 0.867188
 36 2.277762 -15.121343 4.091272 -0.928260 0.358939 -0.097449 0.218750 0.812500
glock_base.bmp
 36 2.279059 -16.962193 4.251789 -0.974137 -0.112153 -0.196159 0.457031 0.867188
 36 2.279061 -14.913343 4.482468 -0.946512 0.284305 -0.152594 0.203125 0.914063
 36 2.277762 -15.121343 4.091272 -0.928260 0.358939 -0.097449 0.218750 0.812500
glock_base.bmp
 36 2.277762 -15.121343 4.091272 -0.928260 0.358939 -0.097449 0.218750 0.812500
 36 2.279061 -14.913343 4.482468 -0.946512 0.284305 -0.152594 0.203125 0.914063
 36 2.726733 -14.831868 4.030194 0.001757 0.982412 -0.186720 0.152344 0.804688
glock_base.bmp
 36 2.279061 -14.913343 4.482468 -0.946512 0.284305 -0.152594 0.203125 0.914063
 36 2.715109 -14.693335 4.321353 0.003607 0.915856 -0.401491 0.128906 0.882813
 36 2.726733 -14.831868 4.030194 0.001757 0.982412 -0.186720 0.152344 0.804688
glock_base.bmp
 36 2.726733 -14.831868 4.030194 0.001757 0.982412 -0.186720 0.152344 0.804688
 36 2.715109 -14.693335 4.321353 0.003607 0.915856 -0.401491 0.128906 0.882813
 36 3.149576 -14.905006 4.488183 0.923760 0.344671 -0.166940 0.203125 0.914063
glock_base.bmp
 36 2.308059 -15.556955 1.267033 -0.983524 -0.180566 -0.008711 0.273438 0.015625
 36 2.298184 -14.262021 2.264403 -0.859675 0.453240 0.235654 0.109375 0.304688
 36 2.310727 -13.986927 1.265070 -0.790786 0.581793 0.190196 0.085938 0.015625
glock_base.bmp
 36 2.310727 -13.986927 1.265070 -0.790786 0.581793 0.190196 0.085938 0.015625
 36 2.298184 -14.262021 2.264403 -0.859675 0.453240 0.235654 0.109375 0.304688
 36 2.729044 -14.012874 2.273652 -0.003400 0.913032 0.407874 0.046875 0.312500
glock_base.bmp
 36 2.298184 -14.262021 2.264403 -0.859675 0.453240 0.235654 0.109375 0.304688
 36 2.716937 -14.466276 2.941917 -0.004467 0.847964 0.530035 0.105469 0.492188
 36 2.729044 -14.012874 2.273652 -0.003400 0.913032 0.407874 0.046875 0.312500
glock_base.bmp
 36 2.729044 -14.012874 2.273652 -0.003400 0.913032 0.407874 0.046875 0.312500
 36 2.716937 -14.466276 2.941917 -0.004467 0.847964 0.530035 0.105469 0.492188
 36 3.168681 -14.263684 2.270067 0.855531 0.453113 0.250511 0.109375 0.304688
glock_base.bmp
 36 2.716937 -14.466276 2.941917 -0.004467 0.847964 0.530035 0.105469 0.492188
 36 3.166272 -14.727053 2.928006 0.855531 0.453113 0.250511 0.171875 0.484375
 36 3.168681 -14.263684 2.270067 0.855531 0.453113 0.250511 0.109375 0.304688
glock_base.bmp
 36 3.168681 -14.263684 2.270067 0.855531 0.453113 0.250511 0.109375 0.304688
 36 3.166272 -14.727053 2.928006 0.855531 0.453113 0.250511 0.171875 0.484375
 36 3.169943 -15.900801 1.701343 0.999963 -0.000143 0.008656 0.316406 0.148438
glock_base.bmp
 36 3.166272 -14.727053 2.928006 0.855531 0.453113 0.250511 0.171875 0.484375
 36 3.157737 -16.851671 3.827631 0.999963 -0.000143 0.008656 0.433594 0.734375
 36 3.169943 -15.900801 1.701343 0.999963 -0.000143 0.008656 0.316406 0.148438
glock_base.bmp
 36 2.495813 -17.046528 3.064815 -0.999963 0.000143 -0.008656 0.460938 0.148438
 36 2.492959 -18.566505 3.057038 -0.999963 0.000143 -0.008656 0.644531 0.148438
 36 2.500172 -17.107355 3.224444 -0.999963 0.000143 -0.008656 0.464844 0.203125
glock_base.bmp
 36 2.500172 -17.107355 3.224444 -0.999963 0.000143 -0.008656 0.464844 0.203125
 36 2.492959 -18.566505 3.057038 -0.999963 0.000143 -0.008656 0.644531 0.148438
 36 2.498872 -18.097443 3.239370 -0.999963 0.000143 -0.008656 0.589844 0.195313
glock_base.bmp
 36 2.492959 -18.566505 3.057038 -0.999963 0.000143 -0.008656 0.644531 0.148438
 36 2.492449 -18.428196 3.387901 -0.999963 0.000143 -0.008656 0.636719 0.242188
 36 2.498872 -18.097443 3.239370 -0.999963 0.000143 -0.008656 0.589844 0.195313
glock_base.bmp
 36 2.498872 -18.097443 3.239370 -0.999963 0.000143 -0.008656 0.589844 0.195313
 36 2.492449 -18.428196 3.387901 -0.999963 0.000143 -0.008656 0.636719 0.242188
 36 2.493569 -18.278353 3.418656 -0.999963 0.000143 -0.008656 0.625000 0.242188
glock_base.bmp
 36 2.492449 -18.428196 3.387901 -0.999963 0.000143 -0.008656 0.636719 0.242188
 36 2.494154 -18.450348 3.807909 -0.999963 0.000143 -0.008656 0.640625 0.375000
 36 2.493569 -18.278353 3.418656 -0.999963 0.000143 -0.008656 0.625000 0.242188
glock_base.bmp
 36 2.493569 -18.278353 3.418656 -0.999963 0.000143 -0.008656 0.625000 0.242188
 36 2.494154 -18.450348 3.807909 -0.999963 0.000143 -0.008656 0.640625 0.375000
 36 2.494454 -18.290350 3.808727 -0.999963 0.000143 -0.008656 0.625000 0.375000
glock_base.bmp
 36 2.494154 -18.450348 3.807909 -0.999963 0.000143 -0.008656 0.640625 0.375000
 36 2.483233 -18.682066 4.147154 -0.713201 -0.000671 0.700959 0.660156 0.460938
 36 2.494454 -18.290350 3.808727 -0.999963 0.000143 -0.008656 0.625000 0.375000
glock_base.bmp
 36 2.280187 -14.313353 4.485538 -0.999963 0.000143 -0.008656 0.078125 0.953125
 36 2.279061 -14.913343 4.482468 -0.946512 0.284305 -0.152594 0.203125 0.914063
 36 2.276208 -14.384471 4.705371 -0.999963 0.000143 -0.008656 0.132813 0.984375
glock_base.bmp
 36 2.276208 -14.384471 4.705371 -0.999963 0.000143 -0.008656 0.132813 0.984375
 36 2.279061 -14.913343 4.482468 -0.946512 0.284305 -0.152594 0.203125 0.914063
 36 2.273998 -21.184490 4.690291 -0.999963 0.000143 -0.008656 0.988281 0.984375
glock_base.bmp
 36 2.279061 -14.913343 4.482468 -0.946512 0.284305 -0.152594 0.203125 0.914063
 36 2.279059 -16.962193 4.251789 -0.974137 -0.112153 -0.196159 0.457031 0.867188
 36 2.273998 -21.184490 4.690291 -0.999963 0.000143 -0.008656 0.988281 0.984375
glock_base.bmp
 36 2.273998 -21.184490 4.690291 -0.999963 0.000143 -0.008656 0.988281 0.984375
 36 2.279059 -16.962193 4.251789 -0.974137 -0.112153 -0.196159 0.457031 0.867188
 36 2.276168 -21.183062 4.410125 -0.923966 -0.013359 -0.382242 0.988281 0.914063
glock_base.bmp
 36 2.279059 -16.962193 4.251789 -0.974137 -0.112153 -0.196159 0.457031 0.867188
 36 2.413507 -17.061453 4.057440 -0.854877 -0.147247 -0.497497 0.468750 0.820313
 36 2.276168 -21.183062 4.410125 -0.923966 -0.013359 -0.382242 0.988281 0.914063
glock_base.bmp
 36 2.276168 -21.183062 4.410125 -0.923966 -0.013359 -0.382242 0.988281 0.914063
 36 2.413507 -17.061453 4.057440 -0.854877 -0.147247 -0.497497 0.468750 0.820313
 36 2.410542 -21.172270 4.206343 -0.838857 -0.018893 -0.544023 0.992188 0.851563
glock_base.bmp
 36 2.953357 -18.557407 3.064221 0.007452 -0.494672 -0.869048 0.703125 0.164063
 36 2.952548 -18.429045 3.385036 -0.002207 -0.971036 0.238923 0.687500 0.250000
 36 2.492959 -18.566505 3.057038 0.001012 -0.991064 -0.133381 0.648438 0.164063
glock_base.bmp
 36 2.492959 -18.566505 3.057038 0.001012 -0.991064 -0.133381 0.648438 0.164063
 36 2.952548 -18.429045 3.385036 -0.002207 -0.971036 0.238923 0.687500 0.250000
 36 2.492449 -18.428196 3.387901 -0.000962 -0.995514 0.094608 0.640625 0.250000
glock_base.bmp
 36 2.952548 -18.429045 3.385036 -0.002207 -0.971036 0.238923 0.687500 0.250000
 36 2.944536 -18.451231 3.815319 0.001863 -0.972866 -0.231360 0.691406 0.375000
 36 2.492449 -18.428196 3.387901 -0.000962 -0.995514 0.094608 0.640625 0.250000
glock_base.bmp
 36 2.492449 -18.428196 3.387901 -0.000962 -0.995514 0.094608 0.640625 0.250000
 36 2.944536 -18.451231 3.815319 0.001863 -0.972866 -0.231360 0.691406 0.375000
 36 2.494154 -18.450348 3.807909 0.003438 -0.911050 -0.412282 0.640625 0.375000
glock_base.bmp
 36 2.944536 -18.451231 3.815319 0.001863 -0.972866 -0.231360 0.691406 0.375000
 36 2.943611 -18.682968 4.154285 0.004840 -0.819770 -0.572672 0.718750 0.460938
 36 2.494154 -18.450348 3.807909 0.003438 -0.911050 -0.412282 0.640625 0.375000
glock_base.bmp
 36 2.494154 -18.450348 3.807909 0.003438 -0.911050 -0.412282 0.640625 0.375000
 36 2.943611 -18.682968 4.154285 0.004840 -0.819770 -0.572672 0.718750 0.460938
 36 2.483233 -18.682066 4.147154 0.004840 -0.819770 -0.572672 0.664063 0.460938
glock_base.bmp
 36 2.492959 -18.566505 3.057038 0.001012 -0.991064 -0.133381 0.644531 0.148438
 36 2.495813 -17.046528 3.064815 0.008585 0.145582 -0.989309 0.460938 0.148438
 36 2.953357 -18.557407 3.064221 0.007452 -0.494672 -0.869048 0.644531 0.031250
glock_base.bmp
 36 2.953357 -18.557407 3.064221 0.007452 -0.494672 -0.869048 0.644531 0.031250
 36 2.495813 -17.046528 3.064815 0.008585 0.145582 -0.989309 0.460938 0.148438
 36 2.955912 -17.047379 3.061951 0.008325 0.290146 -0.956946 0.460938 0.031250
glock_base.bmp
 36 2.495813 -17.046528 3.064815 0.008585 0.145582 -0.989309 0.460938 0.148438
 36 2.500625 -16.717308 3.216443 0.008585 0.145582 -0.989309 0.414063 0.195313
 36 2.955912 -17.047379 3.061951 0.008325 0.290146 -0.956946 0.460938 0.031250
glock_base.bmp
 36 2.955912 -17.047379 3.061951 0.008325 0.290146 -0.956946 0.460938 0.031250
 36 2.500625 -16.717308 3.216443 0.008585 0.145582 -0.989309 0.414063 0.195313
 36 2.950727 -16.718140 3.213858 0.008574 -0.122015 -0.992491 0.414063 0.085938
glock_base.bmp
 36 2.500625 -16.717308 3.216443 0.008585 0.145582 -0.989309 0.414063 0.195313
 36 2.496345 -16.316385 3.038563 0.007945 -0.382007 -0.924125 0.363281 0.140625
 36 2.950727 -16.718140 3.213858 0.008574 -0.122015 -0.992491 0.414063 0.085938
glock_base.bmp
 36 2.950727 -16.718140 3.213858 0.008574 -0.122015 -0.992491 0.414063 0.085938
 36 2.496345 -16.316385 3.038563 0.007945 -0.382007 -0.924125 0.363281 0.140625
 36 2.956723 -16.317286 3.045694 0.007945 -0.382007 -0.924125 0.363281 0.039063
glock_base.bmp
 36 2.280191 -16.620459 3.913386 -0.986423 -0.128250 -0.102578 0.402344 0.773438
 36 2.284060 -15.118845 3.600910 -0.825824 0.554487 0.102759 0.218750 0.679688
 36 2.295495 -14.725338 2.912346 -0.859675 0.453240 0.235654 0.171875 0.484375
glock_base.bmp
 36 2.295495 -14.725338 2.912346 -0.859675 0.453240 0.235654 0.171875 0.484375
 36 2.284060 -15.118845 3.600910 -0.825824 0.554487 0.102759 0.218750 0.679688
 36 2.714193 -14.809544 3.580479 -0.002806 0.940524 0.339715 0.152344 0.664063
glock_base.bmp
 36 2.284060 -15.118845 3.600910 -0.825824 0.554487 0.102759 0.218750 0.679688
 36 2.726733 -14.831868 4.030194 0.001757 0.982412 -0.186720 0.152344 0.804688
 36 2.714193 -14.809544 3.580479 -0.002806 0.940524 0.339715 0.152344 0.664063
glock_base.bmp
 36 2.714193 -14.809544 3.580479 -0.002806 0.940524 0.339715 0.152344 0.664063
 36 2.726733 -14.831868 4.030194 0.001757 0.982412 -0.186720 0.152344 0.804688
 36 3.154855 -15.110560 3.616622 0.823992 0.554359 0.117142 0.218750 0.679688
glock_base.bmp
 36 2.726733 -14.831868 4.030194 0.001757 0.982412 -0.186720 0.152344 0.804688
 36 3.148539 -15.123057 4.106932 0.953116 0.295536 -0.065027 0.218750 0.812500
 36 3.154855 -15.110560 3.616622 0.823992 0.554359 0.117142 0.218750 0.679688
glock_base.bmp
 38 2.778707 -14.834801 5.531007 -0.002935 -0.946272 0.323359 0.734375 0.132813
 38 2.775558 -14.874232 5.420847 -0.002935 -0.946272 0.323359 0.734375 0.093750
 38 3.028888 -14.835286 5.534014 -0.002935 -0.946272 0.323359 0.683594 0.132813
glock_base.bmp
 38 3.028888 -14.835286 5.534014 -0.002935 -0.946272 0.323359 0.683594 0.132813
 38 2.775558 -14.874232 5.420847 -0.002935 -0.946272 0.323359 0.734375 0.093750
 38 3.032604 -14.904165 5.313465 -0.002935 -0.946272 0.323359 0.683594 0.039063
glock_base.bmp
 38 2.775558 -14.874232 5.420847 -0.002935 -0.946272 0.323359 0.734375 0.093750
 38 2.645608 -14.874006 5.424481 -0.002935 -0.946272 0.323359 0.761719 0.093750
 38 3.032604 -14.904165 5.313465 -0.002935 -0.946272 0.323359 0.683594 0.039063
glock_base.bmp
 38 3.032604 -14.904165 5.313465 -0.002935 -0.946272 0.323359 0.683594 0.039063
 38 2.645608 -14.874006 5.424481 -0.002935 -0.946272 0.323359 0.761719 0.093750
 38 2.382300 -14.902935 5.311646 -0.002935 -0.946272 0.323359 0.812500 0.039063
glock_base.bmp
 38 2.645608 -14.874006 5.424481 -0.002935 -0.946272 0.323359 0.761719 0.093750
 38 2.378584 -14.834056 5.532195 -0.002935 -0.946272 0.323359 0.812500 0.132813
 38 2.382300 -14.902935 5.311646 -0.002935 -0.946272 0.323359 0.812500 0.039063
glock_base.bmp
 36 2.310727 -13.986927 1.265070 -0.790786 0.581793 0.190196 0.085938 0.015625
 36 2.729044 -14.012874 2.273652 -0.003400 0.913032 0.407874 0.046875 0.312500
 36 2.738373 -13.699003 1.514706 -0.003115 0.926946 0.375182 0.007813 0.085938
glock_base.bmp
 36 2.738373 -13.699003 1.514706 -0.003115 0.926946 0.375182 0.007813 0.085938
 36 2.729044 -14.012874 2.273652 -0.003400 0.913032 0.407874 0.046875 0.312500
 36 3.171507 -13.988625 1.281010 0.787458 0.581679 0.203862 0.085938 0.015625
glock_base.bmp
 36 2.729044 -14.012874 2.273652 -0.003400 0.913032 0.407874 0.046875 0.312500
 36 3.168681 -14.263684 2.270067 0.855531 0.453113 0.250511 0.109375 0.304688
 36 3.171507 -13.988625 1.281010 0.787458 0.581679 0.203862 0.085938 0.015625
glock_base.bmp
 36 3.171507 -13.988625 1.281010 0.787458 0.581679 0.203862 0.085938 0.015625
 36 3.168681 -14.263684 2.270067 0.855531 0.453113 0.250511 0.109375 0.304688
 36 3.177917 -15.898614 1.270958 0.999963 -0.000143 0.008656 0.316406 0.015625
glock_base.bmp
 36 3.168681 -14.263684 2.270067 0.855531 0.453113 0.250511 0.109375 0.304688
 36 3.169943 -15.900801 1.701343 0.999963 -0.000143 0.008656 0.316406 0.148438
 36 3.177917 -15.898614 1.270958 0.999963 -0.000143 0.008656 0.316406 0.015625
glock_base.bmp
 40 2.579491 -17.215940 3.524173 0.000603 0.998589 -0.053107 0.507813 0.343750
 40 2.578014 -17.192482 3.839208 0.001927 0.978460 -0.206429 0.507813 0.445313
 40 2.859659 -17.216530 3.526482 0.000603 0.998589 -0.053107 0.476563 0.343750
glock_base.bmp
 40 2.859659 -17.216530 3.526482 0.000603 0.998589 -0.053107 0.476563 0.343750
 40 2.578014 -17.192482 3.839208 0.001927 0.978460 -0.206429 0.507813 0.445313
 40 2.858182 -17.193069 3.841518 0.003236 0.933578 -0.358360 0.476563 0.445313
glock_base.bmp
 40 2.578014 -17.192482 3.839208 0.001927 0.978460 -0.206429 0.507813 0.445313
 40 2.574775 -16.898123 4.350229 0.004435 0.867146 -0.498034 0.480469 0.570313
 40 2.858182 -17.193069 3.841518 0.003236 0.933578 -0.358360 0.476563 0.445313
glock_base.bmp
 40 2.858182 -17.193069 3.841518 0.003236 0.933578 -0.358360 0.476563 0.445313
 40 2.574775 -16.898123 4.350229 0.004435 0.867146 -0.498034 0.480469 0.570313
 40 2.854943 -16.898710 4.352539 0.004435 0.867146 -0.498034 0.441406 0.562500
glock_base.bmp
 40 2.579995 -17.526274 3.297471 -0.999963 0.000143 -0.008656 0.546875 0.281250
 40 2.579460 -17.410725 3.608193 -0.999963 0.000143 -0.008656 0.535156 0.359375
 40 2.579491 -17.215940 3.524173 -0.999963 0.000143 -0.008656 0.507813 0.343750
glock_base.bmp
 40 2.579491 -17.215940 3.524173 -0.999963 0.000143 -0.008656 0.507813 0.343750
 40 2.579460 -17.410725 3.608193 -0.999963 0.000143 -0.008656 0.535156 0.359375
 40 2.578014 -17.192482 3.839208 -0.999963 0.000143 -0.008656 0.507813 0.445313
glock_base.bmp
 40 2.579460 -17.410725 3.608193 -0.999963 0.000143 -0.008656 0.535156 0.359375
 40 2.576664 -17.640196 4.365184 -0.999963 0.000143 -0.008656 0.562500 0.570313
 40 2.578014 -17.192482 3.839208 -0.999963 0.000143 -0.008656 0.507813 0.445313
glock_base.bmp
 40 2.578014 -17.192482 3.839208 -0.999963 0.000143 -0.008656 0.507813 0.445313
 40 2.576664 -17.640196 4.365184 -0.999963 0.000143 -0.008656 0.562500 0.570313
 40 2.574775 -16.898123 4.350229 -0.999963 0.000143 -0.008656 0.472656 0.570313
glock_base.bmp
 38 2.372849 -14.612923 5.313409 -0.002751 0.942770 0.333431 0.812500 0.039063
 38 2.775970 -14.654235 5.421973 -0.002751 0.942770 0.333431 0.734375 0.101563
 38 3.033428 -14.614222 5.324944 -0.002751 0.942770 0.333431 0.683594 0.039063
glock_base.bmp
 38 2.372849 -14.612923 5.313409 -0.002751 0.942770 0.333431 0.812500 0.039063
 38 2.646022 -14.654010 5.425607 -0.002751 0.942770 0.333431 0.761719 0.101563
 38 2.775970 -14.654235 5.421973 -0.002751 0.942770 0.333431 0.734375 0.101563
glock_base.bmp
 38 2.372849 -14.612923 5.313409 -0.002751 0.942770 0.333431 0.812500 0.039063
 38 2.648741 -14.694526 5.525362 -0.002751 0.942770 0.333431 0.761719 0.132813
 38 2.646022 -14.654010 5.425607 -0.002751 0.942770 0.333431 0.761719 0.101563
glock_base.bmp
 38 2.372849 -14.612923 5.313409 -0.002751 0.942770 0.333431 0.812500 0.039063
 38 2.378568 -14.694006 5.522915 -0.002751 0.942770 0.333431 0.812500 0.132813
 38 2.648741 -14.694526 5.525362 -0.002751 0.942770 0.333431 0.761719 0.132813
glock_base.bmp
 36 3.149576 -14.905006 4.488183 0.923760 0.344671 -0.166940 0.203125 0.914063
 36 3.148539 -15.123057 4.106932 0.953116 0.295536 -0.065027 0.218750 0.812500
 36 2.726733 -14.831868 4.030194 0.001757 0.982412 -0.186720 0.152344 0.804688
glock_base.bmp
 36 3.149576 -14.905006 4.488183 0.923760 0.344671 -0.166940 0.203125 0.914063
 36 3.144774 -21.186205 4.705952 0.999963 -0.000143 0.008656 0.988281 0.984375
 36 3.148539 -15.123057 4.106932 0.953116 0.295536 -0.065027 0.218750 0.812500
glock_base.bmp
 36 3.149576 -14.905006 4.488183 0.923760 0.344671 -0.166940 0.203125 0.914063
 36 3.146705 -14.386134 4.711035 0.999963 -0.000143 0.008656 0.132813 0.984375
 36 3.144774 -21.186205 4.705952 0.999963 -0.000143 0.008656 0.988281 0.984375
glock_base.bmp
 36 3.149576 -14.905006 4.488183 0.923760 0.344671 -0.166940 0.203125 0.914063
 36 3.150703 -14.305016 4.491253 0.999963 -0.000143 0.008656 0.078125 0.953125
 36 3.146705 -14.386134 4.711035 0.999963 -0.000143 0.008656 0.132813 0.984375
glock_base.bmp
 36 3.171507 -13.988625 1.281010 0.008656 0.001093 -0.999962 0.085938 0.015625
 36 3.177917 -15.898614 1.270958 0.008656 0.001093 -0.999962 0.316406 0.015625
 36 2.310727 -13.986927 1.265070 0.008656 0.001093 -0.999962 0.085938 0.015625
glock_base.bmp
 36 2.310727 -13.986927 1.265070 0.008656 0.001093 -0.999962 0.085938 0.015625
 36 3.177917 -15.898614 1.270958 0.008656 0.001093 -0.999962 0.316406 0.015625
 36 2.308059 -15.556955 1.267033 0.008656 0.001093 -0.999962 0.273438 0.015625
glock_base.bmp
 36 3.177917 -15.898614 1.270958 0.008656 0.001093 -0.999962 0.316406 0.015625
 36 2.437369 -15.897176 1.261659 0.008656 0.001093 -0.999962 0.316406 0.015625
 36 2.308059 -15.556955 1.267033 0.008656 0.001093 -0.999962 0.273438 0.015625
glock_base.bmp
 36 2.273998 -21.184490 4.690291 -0.000134 -0.999999 -0.001094 0.988281 0.984375
 36 2.276168 -21.183062 4.410125 -0.000134 -0.999999 -0.001094 0.988281 0.914063
 36 3.144774 -21.186205 4.705952 -0.000134 -0.999999 -0.001094 0.988281 0.984375
glock_base.bmp
 36 3.144774 -21.186205 4.705952 -0.000134 -0.999999 -0.001094 0.988281 0.984375
 36 2.276168 -21.183062 4.410125 -0.000134 -0.999999 -0.001094 0.988281 0.914063
 36 3.150792 -21.183657 4.205594 -0.000134 -0.999999 -0.001094 0.992188 0.851563
glock_base.bmp
 36 2.276168 -21.183062 4.410125 -0.000134 -0.999999 -0.001094 0.988281 0.914063
 36 2.410542 -21.172270 4.206343 -0.015717 -0.999164 -0.037730 0.992188 0.851563
 36 3.150792 -21.183657 4.205594 -0.000134 -0.999999 -0.001094 0.992188 0.851563
glock_base.bmp
 36 2.492131 -16.549343 3.617711 -0.709295 0.655530 0.259194 0.398438 0.296875
 36 2.952510 -16.550243 3.624842 0.893011 0.414406 0.175496 0.398438 0.296875
 36 2.956723 -16.317286 3.045694 0.444416 0.829004 0.339480 0.367188 0.148438
glock_base.bmp
 36 2.956723 -16.317286 3.045694 0.444416 0.829004 0.339480 0.367188 0.148438
 36 2.952510 -16.550243 3.624842 0.893011 0.414406 0.175496 0.398438 0.296875
 36 2.950727 -16.718140 3.213858 0.999963 -0.000143 0.008656 0.414063 0.195313
glock_base.bmp
 36 2.952510 -16.550243 3.624842 0.893011 0.414406 0.175496 0.398438 0.296875
 36 2.950554 -17.108238 3.231854 0.999963 -0.000143 0.008656 0.464844 0.203125
 36 2.950727 -16.718140 3.213858 0.999963 -0.000143 0.008656 0.414063 0.195313
glock_base.bmp
 36 2.496345 -16.316385 3.038563 -0.999963 0.000143 -0.008656 0.367188 0.148438
 36 2.500625 -16.717308 3.216443 -0.999963 0.000143 -0.008656 0.414063 0.195313
 36 2.492131 -16.549343 3.617711 -0.709295 0.655530 0.259194 0.398438 0.296875
glock_base.bmp
 36 2.492131 -16.549343 3.617711 -0.709295 0.655530 0.259194 0.398438 0.296875
 36 2.500625 -16.717308 3.216443 -0.999963 0.000143 -0.008656 0.414063 0.195313
 36 2.500172 -17.107355 3.224444 -0.999963 0.000143 -0.008656 0.464844 0.203125
glock_base.bmp
 36 2.500625 -16.717308 3.216443 -0.999963 0.000143 -0.008656 0.414063 0.195313
 36 2.495813 -17.046528 3.064815 -0.999963 0.000143 -0.008656 0.460938 0.148438
 36 2.500172 -17.107355 3.224444 -0.999963 0.000143 -0.008656 0.464844 0.203125
glock_base.bmp
 36 3.177917 -15.898614 1.270958 -0.000134 -0.999999 -0.001094 0.316406 0.015625
 36 3.169943 -15.900801 1.701343 -0.004821 -0.960218 -0.279209 0.316406 0.148438
 36 2.429675 -15.899415 1.702040 0.001012 -0.991064 -0.133381 0.316406 0.148438
glock_base.bmp
 36 2.429675 -15.899415 1.702040 0.001012 -0.991064 -0.133381 0.316406 0.148438
 36 3.169943 -15.900801 1.701343 -0.004821 -0.960218 -0.279209 0.316406 0.148438
 36 2.417469 -16.850285 3.828328 0.003438 -0.911050 -0.412282 0.433594 0.734375
glock_base.bmp
 36 3.169943 -15.900801 1.701343 -0.004821 -0.960218 -0.279209 0.316406 0.148438
 36 3.157737 -16.851671 3.827631 0.003438 -0.911050 -0.412282 0.433594 0.734375
 36 2.417469 -16.850285 3.828328 0.003438 -0.911050 -0.412282 0.433594 0.734375
glock_base.bmp
 36 3.149576 -14.905006 4.488183 0.351129 -0.000023 -0.936327 0.203125 0.914063
 36 2.715109 -14.693335 4.321353 0.008585 0.145582 -0.989309 0.128906 0.882813
 36 3.150703 -14.305016 4.491253 0.185865 0.198528 -0.962310 0.078125 0.953125
glock_base.bmp
 36 3.150703 -14.305016 4.491253 0.185865 0.198528 -0.962310 0.078125 0.953125
 36 2.715109 -14.693335 4.321353 0.008585 0.145582 -0.989309 0.128906 0.882813
 36 2.280187 -14.313353 4.485538 -0.169121 0.198579 -0.965383 0.078125 0.953125
glock_base.bmp
 36 2.715109 -14.693335 4.321353 0.008585 0.145582 -0.989309 0.128906 0.882813
 36 2.279061 -14.913343 4.482468 -0.334868 0.000076 -0.942265 0.203125 0.914063
 36 2.280187 -14.313353 4.485538 -0.169121 0.198579 -0.965383 0.078125 0.953125
glock_base.bmp
 40 2.859659 -17.216530 3.526482 0.999963 -0.000143 0.008656 0.507813 0.343750
 40 2.858182 -17.193069 3.841518 0.999963 -0.000143 0.008656 0.507813 0.445313
 40 2.859629 -17.411312 3.610503 0.999963 -0.000143 0.008656 0.535156 0.359375
glock_base.bmp
 40 2.859629 -17.411312 3.610503 0.999963 -0.000143 0.008656 0.535156 0.359375
 40 2.858182 -17.193069 3.841518 0.999963 -0.000143 0.008656 0.507813 0.445313
 40 2.856832 -17.640783 4.367494 0.999963 -0.000143 0.008656 0.562500 0.570313
glock_base.bmp
 40 2.858182 -17.193069 3.841518 0.999963 -0.000143 0.008656 0.507813 0.445313
 40 2.854943 -16.898710 4.352539 0.999963 -0.000143 0.008656 0.472656 0.570313
 40 2.856832 -17.640783 4.367494 0.999963 -0.000143 0.008656 0.562500 0.570313
glock_base.bmp
 36 2.997036 -18.299053 5.325248 0.999963 -0.000143 0.008656 0.984375 0.429688
 36 2.995554 -18.306952 4.915083 0.999963 -0.000143 0.008656 0.984375 0.320313
 36 2.999441 -16.869022 5.322569 0.999963 -0.000143 0.008656 0.804688 0.429688
glock_base.bmp
 36 2.999441 -16.869022 5.322569 0.999963 -0.000143 0.008656 0.804688 0.429688
 36 2.995554 -18.306952 4.915083 0.999963 -0.000143 0.008656 0.984375 0.320313
 36 2.998257 -16.866974 4.922451 0.999963 -0.000143 0.008656 0.804688 0.320313
glock_base.bmp
 36 2.417926 -16.865864 4.918675 -0.999963 0.000143 -0.008656 0.804688 0.320313
 36 2.415222 -18.305843 4.911307 -0.999963 0.000143 -0.008656 0.984375 0.320313
 36 2.419109 -16.867914 5.318793 -0.999963 0.000143 -0.008656 0.804688 0.429688
glock_base.bmp
 36 2.419109 -16.867914 5.318793 -0.999963 0.000143 -0.008656 0.804688 0.429688
 36 2.415222 -18.305843 4.911307 -0.999963 0.000143 -0.008656 0.984375 0.320313
 36 2.416685 -18.307945 5.321421 -0.999963 0.000143 -0.008656 0.984375 0.429688
glock_base.bmp
 36 2.998257 -16.866974 4.922451 0.008656 0.001093 -0.999962 0.804688 0.320313
 36 2.995554 -18.306952 4.915083 0.008656 0.001093 -0.999962 0.984375 0.320313
 36 2.417926 -16.865864 4.918675 0.008656 0.001093 -0.999962 0.804688 0.320313
glock_base.bmp
 36 2.417926 -16.865864 4.918675 0.008656 0.001093 -0.999962 0.804688 0.320313
 36 2.995554 -18.306952 4.915083 0.008656 0.001093 -0.999962 0.984375 0.320313
 36 2.415222 -18.305843 4.911307 0.008656 0.001093 -0.999962 0.984375 0.320313
glock_base.bmp
 36 2.999441 -16.869022 5.322569 0.000134 0.999999 0.001094 0.804688 0.429688
 36 2.998257 -16.866974 4.922451 0.000134 0.999999 0.001094 0.804688 0.320313
 36 2.419109 -16.867914 5.318793 0.000134 0.999999 0.001094 0.804688 0.429688
glock_base.bmp
 36 2.419109 -16.867914 5.318793 0.000134 0.999999 0.001094 0.804688 0.429688
 36 2.998257 -16.866974 4.922451 0.000134 0.999999 0.001094 0.804688 0.320313
 36 2.417926 -16.865864 4.918675 0.000134 0.999999 0.001094 0.804688 0.320313
glock_base.bmp
 36 2.997036 -18.299053 5.325248 -0.008656 -0.001093 0.999962 0.984375 0.593750
 36 2.999441 -16.869022 5.322569 -0.008656 -0.001093 0.999962 0.804688 0.593750
 36 2.416685 -18.307945 5.321421 -0.008656 -0.001093 0.999962 0.984375 0.429688
glock_base.bmp
 36 2.416685 -18.307945 5.321421 -0.008656 -0.001093 0.999962 0.984375 0.429688
 36 2.999441 -16.869022 5.322569 -0.008656 -0.001093 0.999962 0.804688 0.593750
 36 2.419109 -16.867914 5.318793 -0.008656 -0.001093 0.999962 0.804688 0.429688
glock_base.bmp
 36 2.995554 -18.306952 4.915083 -0.000134 -0.999999 -0.001094 0.984375 0.320313
 36 2.997036 -18.299053 5.325248 -0.000134 -0.999999 -0.001094 0.984375 0.429688
 36 2.415222 -18.305843 4.911307 -0.000134 -0.999999 -0.001094 0.984375 0.320313
glock_base.bmp
 36 2.415222 -18.305843 4.911307 -0.000134 -0.999999 -0.001094 0.984375 0.320313
 36 2.997036 -18.299053 5.325248 -0.000134 -0.999999 -0.001094 0.984375 0.429688
 36 2.416685 -18.307945 5.321421 -0.000134 -0.999999 -0.001094 0.984375 0.429688
glock_base.bmp
 36 3.146705 -14.386134 4.711035 -0.002806 0.940524 0.339715 0.046875 0.984375
 36 3.150703 -14.305016 4.491253 -0.002806 0.940524 0.339715 0.003906 0.953125
 36 2.276208 -14.384471 4.705371 -0.002806 0.940524 0.339715 0.128906 0.984375
glock_base.bmp
 36 2.276208 -14.384471 4.705371 -0.002806 0.940524 0.339715 0.128906 0.984375
 36 3.150703 -14.305016 4.491253 -0.002806 0.940524 0.339715 0.003906 0.953125
 36 2.280187 -14.313353 4.485538 -0.002806 0.940524 0.339715 0.078125 0.953125
glock_base.bmp
 36 3.144774 -21.186205 4.705952 -0.008656 -0.001093 0.999962 0.988281 0.656250
 36 3.146705 -14.386134 4.711035 -0.008656 -0.001093 0.999962 0.480469 0.609375
 36 2.273998 -21.184490 4.690291 -0.008656 -0.001093 0.999962 0.988281 0.843750
glock_base.bmp
 36 2.273998 -21.184490 4.690291 -0.008656 -0.001093 0.999962 0.988281 0.843750
 36 3.146705 -14.386134 4.711035 -0.008656 -0.001093 0.999962 0.480469 0.609375
 36 2.276208 -14.384471 4.705371 -0.008656 -0.001093 0.999962 0.480469 0.796875
glock_base.bmp
 36 2.280191 -16.620459 3.913386 -0.986423 -0.128250 -0.102578 0.402344 0.773438
 36 2.277762 -15.121343 4.091272 -0.928260 0.358939 -0.097449 0.218750 0.812500
 36 2.284060 -15.118845 3.600910 -0.825824 0.554487 0.102759 0.218750 0.679688
glock_base.bmp
 36 2.284060 -15.118845 3.600910 -0.825824 0.554487 0.102759 0.218750 0.679688
 36 2.277762 -15.121343 4.091272 -0.928260 0.358939 -0.097449 0.218750 0.812500
 36 2.726733 -14.831868 4.030194 0.001757 0.982412 -0.186720 0.152344 0.804688
glock_base.bmp
 36 2.944813 -18.042976 4.157559 0.005200 0.809352 -0.587300 0.699219 0.796875
 36 2.944837 -18.291233 3.816138 0.003607 0.915856 -0.401491 0.746094 0.796875
 36 2.484434 -18.042076 4.150428 0.005200 0.809352 -0.587300 0.699219 0.648438
glock_base.bmp
 36 2.484434 -18.042076 4.150428 0.005200 0.809352 -0.587300 0.699219 0.648438
 36 2.944837 -18.291233 3.816138 0.003607 0.915856 -0.401491 0.746094 0.796875
 36 2.494454 -18.290350 3.808727 0.001757 0.982412 -0.186720 0.746094 0.648438
glock_base.bmp
 40 2.859659 -17.216530 3.526482 0.007093 0.586777 -0.809717 0.476563 0.343750
 40 2.860164 -17.526861 3.299781 0.007093 0.586777 -0.809717 0.515625 0.281250
 40 2.579491 -17.215940 3.524173 0.007093 0.586777 -0.809717 0.507813 0.343750
glock_base.bmp
 40 2.579491 -17.215940 3.524173 0.007093 0.586777 -0.809717 0.507813 0.343750
 40 2.860164 -17.526861 3.299781 0.007093 0.586777 -0.809717 0.515625 0.281250
 40 2.579995 -17.526274 3.297471 0.007093 0.586777 -0.809717 0.546875 0.281250
glock_base.bmp
 40 2.856832 -17.640783 4.367494 -0.008656 -0.000693 0.999962 0.562500 0.570313
 40 2.854943 -16.898710 4.352539 -0.008656 -0.000693 0.999962 0.472656 0.570313
 40 2.576664 -17.640196 4.365184 -0.008656 -0.000693 0.999962 0.562500 0.570313
glock_base.bmp
 40 2.576664 -17.640196 4.365184 -0.008656 -0.000693 0.999962 0.562500 0.570313
 40 2.854943 -16.898710 4.352539 -0.008656 -0.000693 0.999962 0.472656 0.570313
 40 2.574775 -16.898123 4.350229 -0.008656 -0.000693 0.999962 0.472656 0.570313
glock_base.bmp
 38 3.033428 -14.614222 5.324944 0.008657 0.012393 -0.999886 0.683594 0.039063
 38 3.032604 -14.904165 5.313465 0.008657 0.012393 -0.999886 0.683594 0.039063
 38 2.372849 -14.612923 5.313409 0.008657 0.012393 -0.999886 0.812500 0.039063
glock_base.bmp
 38 2.372849 -14.612923 5.313409 0.008657 0.012393 -0.999886 0.812500 0.039063
 38 3.032604 -14.904165 5.313465 0.008657 0.012393 -0.999886 0.683594 0.039063
 38 2.382300 -14.902935 5.311646 0.008657 0.012393 -0.999886 0.812500 0.039063
glock_base.bmp
 38 3.032604 -14.904165 5.313465 0.999963 -0.000143 0.008656 0.878906 0.039063
 38 3.033428 -14.614222 5.324944 0.999963 -0.000143 0.008656 0.824219 0.039063
 38 3.028888 -14.835286 5.534014 0.999963 -0.000143 0.008656 0.851563 0.132813
glock_base.bmp
 38 3.028888 -14.835286 5.534014 0.999963 -0.000143 0.008656 0.851563 0.132813
 38 3.033428 -14.614222 5.324944 0.999963 -0.000143 0.008656 0.824219 0.039063
 38 3.029151 -14.695288 5.534730 0.999963 -0.000143 0.008656 0.824219 0.132813
glock_base.bmp
 38 2.382300 -14.902935 5.311646 -0.999963 0.000143 -0.008656 0.878906 0.039063
 38 2.378584 -14.834056 5.532195 -0.999963 0.000143 -0.008656 0.851563 0.132813
 38 2.372849 -14.612923 5.313409 -0.999963 0.000143 -0.008656 0.824219 0.039063
glock_base.bmp
 38 2.372849 -14.612923 5.313409 -0.999963 0.000143 -0.008656 0.824219 0.039063
 38 2.378584 -14.834056 5.532195 -0.999963 0.000143 -0.008656 0.851563 0.132813
 38 2.378568 -14.694006 5.522915 -0.999963 0.000143 -0.008656 0.824219 0.132813
glock_base.bmp
 38 3.028888 -14.835286 5.534014 -0.008652 0.017108 0.999816 0.488281 0.195313
 38 3.029151 -14.695288 5.534730 -0.008652 0.017108 0.999816 0.488281 0.164063
 38 2.778707 -14.834801 5.531007 -0.008652 0.017108 0.999816 0.535156 0.195313
glock_base.bmp
 38 2.778707 -14.834801 5.531007 -0.008652 0.017108 0.999816 0.535156 0.195313
 38 3.029151 -14.695288 5.534730 -0.008652 0.017108 0.999816 0.488281 0.164063
 38 2.778970 -14.694803 5.531723 -0.008652 0.017108 0.999816 0.535156 0.164063
glock_base.bmp
 38 3.033428 -14.614222 5.324944 -0.002751 0.942770 0.333431 0.683594 0.039063
 38 2.775970 -14.654235 5.421973 -0.002751 0.942770 0.333431 0.734375 0.101563
 38 3.029151 -14.695288 5.534730 -0.002751 0.942770 0.333431 0.683594 0.132813
glock_base.bmp
 38 3.029151 -14.695288 5.534730 -0.002751 0.942770 0.333431 0.683594 0.132813
 38 2.775970 -14.654235 5.421973 -0.002751 0.942770 0.333431 0.734375 0.101563
 38 2.778970 -14.694803 5.531723 -0.002751 0.942770 0.333431 0.734375 0.132813
glock_base.bmp
 38 2.378568 -14.694006 5.522915 -0.008652 0.017108 0.999816 0.617188 0.164063
 38 2.378584 -14.834056 5.532195 -0.008652 0.017108 0.999816 0.617188 0.195313
 38 2.648741 -14.694526 5.525362 -0.008652 0.017108 0.999816 0.566406 0.164063
glock_base.bmp
 38 2.648741 -14.694526 5.525362 -0.008652 0.017108 0.999816 0.566406 0.164063
 38 2.378584 -14.834056 5.532195 -0.008652 0.017108 0.999816 0.617188 0.195313
 38 2.648758 -14.834576 5.534642 -0.008652 0.017108 0.999816 0.566406 0.195313
glock_base.bmp
 38 2.646022 -14.654010 5.425607 0.999963 -0.000143 0.008656 0.832031 0.054688
 38 2.648741 -14.694526 5.525362 0.999963 -0.000143 0.008656 0.867188 0.062500
 38 2.645608 -14.874006 5.424481 0.999963 -0.000143 0.008656 0.832031 0.093750
glock_base.bmp
 38 2.645608 -14.874006 5.424481 0.999963 -0.000143 0.008656 0.832031 0.093750
 38 2.648741 -14.694526 5.525362 0.999963 -0.000143 0.008656 0.867188 0.062500
 38 2.648758 -14.834576 5.534642 0.999963 -0.000143 0.008656 0.867188 0.085938
glock_base.bmp
 38 2.775970 -14.654235 5.421973 -0.999963 0.000143 -0.008656 0.832031 0.054688
 38 2.775558 -14.874232 5.420847 -0.999963 0.000143 -0.008656 0.828125 0.093750
 38 2.778970 -14.694803 5.531723 -0.999963 0.000143 -0.008656 0.867188 0.062500
glock_base.bmp
 38 2.778970 -14.694803 5.531723 -0.999963 0.000143 -0.008656 0.867188 0.062500
 38 2.775558 -14.874232 5.420847 -0.999963 0.000143 -0.008656 0.828125 0.093750
 38 2.778707 -14.834801 5.531007 -0.999963 0.000143 -0.008656 0.867188 0.085938
glock_base.bmp
 38 2.803050 -20.783955 5.339511 0.008657 0.012393 -0.999886 0.921875 0.039063
 38 2.802244 -21.063900 5.328082 0.008657 0.012393 -0.999886 0.964844 0.039063
 38 2.612826 -20.793573 5.334775 0.008657 0.012393 -0.999886 0.921875 0.039063
glock_base.bmp
 38 2.612826 -20.793573 5.334775 0.008657 0.012393 -0.999886 0.921875 0.039063
 38 2.802244 -21.063900 5.328082 0.008657 0.012393 -0.999886 0.964844 0.039063
 38 2.612039 -21.063519 5.323398 0.008657 0.012393 -0.999886 0.964844 0.039063
glock_base.bmp
 38 2.797953 -20.854866 5.519360 -0.002751 0.942770 0.333431 0.929688 0.125000
 38 2.803050 -20.783955 5.339511 -0.002751 0.942770 0.333431 0.921875 0.039063
 38 2.608027 -20.854538 5.524672 -0.002751 0.942770 0.333431 0.921875 0.125000
glock_base.bmp
 38 2.608027 -20.854538 5.524672 -0.002751 0.942770 0.333431 0.921875 0.125000
 38 2.803050 -20.783955 5.339511 -0.002751 0.942770 0.333431 0.921875 0.039063
 38 2.612826 -20.793573 5.334775 -0.002751 0.942770 0.333431 0.910156 0.039063
glock_base.bmp
 38 2.797821 -20.924866 5.519001 -0.008652 0.017108 0.999816 0.937500 0.125000
 38 2.797953 -20.854866 5.519360 -0.008652 0.017108 0.999816 0.929688 0.125000
 38 2.607896 -20.924536 5.524313 -0.008652 0.017108 0.999816 0.937500 0.125000
glock_base.bmp
 38 2.607896 -20.924536 5.524313 -0.008652 0.017108 0.999816 0.937500 0.125000
 38 2.797953 -20.854866 5.519360 -0.008652 0.017108 0.999816 0.929688 0.125000
 38 2.608027 -20.854538 5.524672 -0.008652 0.017108 0.999816 0.929688 0.125000
glock_base.bmp
 38 2.802244 -21.063900 5.328082 0.001596 -0.808959 0.587863 0.964844 0.039063
 38 2.797821 -20.924866 5.519001 0.001596 -0.808959 0.587863 0.937500 0.125000
 38 2.612039 -21.063519 5.323398 0.001596 -0.808959 0.587863 0.964844 0.039063
glock_base.bmp
 38 2.612039 -21.063519 5.323398 0.001596 -0.808959 0.587863 0.964844 0.039063
 38 2.797821 -20.924866 5.519001 0.001596 -0.808959 0.587863 0.937500 0.125000
 38 2.607896 -20.924536 5.524313 0.001596 -0.808959 0.587863 0.937500 0.125000
glock_base.bmp
 38 2.802244 -21.063900 5.328082 0.999963 -0.000143 0.008656 0.964844 0.039063
 38 2.803050 -20.783955 5.339511 0.999963 -0.000143 0.008656 0.921875 0.039063
 38 2.797821 -20.924866 5.519001 0.999963 -0.000143 0.008656 0.937500 0.125000
glock_base.bmp
 38 2.797821 -20.924866 5.519001 0.999963 -0.000143 0.008656 0.937500 0.125000
 38 2.803050 -20.783955 5.339511 0.999963 -0.000143 0.008656 0.921875 0.039063
 38 2.797953 -20.854866 5.519360 0.999963 -0.000143 0.008656 0.929688 0.125000
glock_base.bmp
 38 2.612039 -21.063519 5.323398 -0.999963 0.000143 -0.008656 0.964844 0.039063
 38 2.607896 -20.924536 5.524313 -0.999963 0.000143 -0.008656 0.937500 0.125000
 38 2.612826 -20.793573 5.334775 -0.999963 0.000143 -0.008656 0.921875 0.039063
glock_base.bmp
 38 2.612826 -20.793573 5.334775 -0.999963 0.000143 -0.008656 0.921875 0.039063
 38 2.607896 -20.924536 5.524313 -0.999963 0.000143 -0.008656 0.937500 0.125000
 38 2.608027 -20.854538 5.524672 -0.999963 0.000143 -0.008656 0.929688 0.125000
glock_base.bmp
 38 2.646022 -14.654010 5.425607 0.012745 -0.032494 0.999391 0.519531 0.164063
 38 2.645608 -14.874006 5.424481 0.012745 -0.032494 0.999391 0.519531 0.195313
 38 2.775970 -14.654235 5.421973 0.012745 -0.032494 0.999391 0.488281 0.164063
glock_base.bmp
 38 2.775970 -14.654235 5.421973 0.012745 -0.032494 0.999391 0.488281 0.164063
 38 2.645608 -14.874006 5.424481 0.012745 -0.032494 0.999391 0.519531 0.195313
 38 2.775558 -14.874232 5.420847 0.012745 -0.032494 0.999391 0.488281 0.195313
glock_base.bmp
 36 2.417469 -16.850285 3.828328 0.001173 -0.744389 -0.667745 0.433594 0.734375
 36 3.157737 -16.851671 3.827631 0.001173 -0.744389 -0.667745 0.433594 0.734375
 36 2.413507 -17.061453 4.057440 0.001173 -0.744389 -0.667745 0.468750 0.820313
glock_base.bmp
 36 2.413507 -17.061453 4.057440 0.001173 -0.744389 -0.667745 0.468750 0.820313
 36 3.157737 -16.851671 3.827631 0.001173 -0.744389 -0.667745 0.433594 0.734375
 36 3.153775 -17.062840 4.056743 0.001173 -0.744389 -0.667745 0.468750 0.820313
glock_base.bmp
 36 2.413507 -17.061453 4.057440 0.004045 -0.035308 -0.999368 0.476563 0.820313
 36 3.153775 -17.062840 4.056743 0.004045 -0.035308 -0.999368 0.476563 0.625000
 36 2.410542 -21.172270 4.206343 0.004045 -0.035308 -0.999368 0.992188 0.851563
glock_base.bmp
 36 2.410542 -21.172270 4.206343 0.004045 -0.035308 -0.999368 0.992188 0.851563
 36 3.153775 -17.062840 4.056743 0.004045 -0.035308 -0.999368 0.476563 0.625000
 36 3.150792 -21.183657 4.205594 0.004045 -0.035308 -0.999368 0.992188 0.664063
glock_base.bmp
 40 2.856832 -17.640783 4.367494 0.002467 -0.953674 -0.300833 0.562500 0.570313
 40 2.576664 -17.640196 4.365184 0.002467 -0.953674 -0.300833 0.562500 0.570313
 40 2.859629 -17.411312 3.610503 0.002467 -0.953674 -0.300833 0.535156 0.359375
glock_base.bmp
 40 2.859629 -17.411312 3.610503 0.002467 -0.953674 -0.300833 0.535156 0.359375
 40 2.576664 -17.640196 4.365184 0.002467 -0.953674 -0.300833 0.562500 0.570313
 40 2.579460 -17.410725 3.608193 0.002467 -0.953674 -0.300833 0.535156 0.359375
glock_base.bmp
 36 2.280191 -16.620459 3.913386 -0.986423 -0.128250 -0.102578 0.402344 0.773438
 36 2.295495 -14.725338 2.912346 -0.859675 0.453240 0.235654 0.171875 0.484375
 36 2.300085 -15.559143 1.697418 -0.979361 -0.190092 -0.068687 0.269531 0.148438
glock_base.bmp
 36 2.956723 -16.317286 3.045694 0.444416 0.829004 0.339480 0.367188 0.148438
 36 2.496345 -16.316385 3.038563 -0.003115 0.926946 0.375182 0.367188 0.148438
 36 2.492131 -16.549343 3.617711 -0.709295 0.655530 0.259194 0.398438 0.296875
glock_base.bmp
 40 2.859629 -17.411312 3.610503 -0.003087 -0.940041 0.341047 0.535156 0.359375
 40 2.579995 -17.526274 3.297471 -0.003087 -0.940041 0.341047 0.546875 0.281250
 40 2.860164 -17.526861 3.299781 -0.003087 -0.940041 0.341047 0.515625 0.281250
glock_base.bmp
 40 2.859629 -17.411312 3.610503 -0.003087 -0.940041 0.341047 0.535156 0.359375
 40 2.579460 -17.410725 3.608193 -0.003087 -0.940041 0.341047 0.535156 0.359375
 40 2.579995 -17.526274 3.297471 -0.003087 -0.940041 0.341047 0.546875 0.281250
glock_base.bmp
 40 2.859629 -17.411312 3.610503 0.999963 -0.000143 0.008656 0.535156 0.359375
 40 2.860164 -17.526861 3.299781 0.999963 -0.000143 0.008656 0.546875 0.281250
 40 2.859659 -17.216530 3.526482 0.999963 -0.000143 0.008656 0.507813 0.343750
glock_base.bmp
 38 2.378584 -14.834056 5.532195 -0.002935 -0.946272 0.323359 0.812500 0.132813
 38 2.645608 -14.874006 5.424481 -0.002935 -0.946272 0.323359 0.761719 0.093750
 38 2.648758 -14.834576 5.534642 -0.002935 -0.946272 0.323359 0.761719 0.132813
glock_base.bmp
 36 2.279059 -16.962193 4.251789 -0.974137 -0.112153 -0.196159 0.457031 0.867188
 36 2.417469 -16.850285 3.828328 -0.884919 -0.375388 -0.275686 0.433594 0.734375
 36 2.413507 -17.061453 4.057440 -0.854877 -0.147247 -0.497497 0.468750 0.820313
glock_base.bmp
 36 2.437369 -15.897176 1.261659 -0.000134 -0.999999 -0.001094 0.316406 0.015625
 36 3.177917 -15.898614 1.270958 -0.000134 -0.999999 -0.001094 0.316406 0.015625
 36 2.429675 -15.899415 1.702040 0.001012 -0.991064 -0.133381 0.316406 0.148438
glock_base.bmp
 36 2.738373 -13.699003 1.514706 0.006718 0.643546 -0.765378 0.007813 0.085938
 36 3.171507 -13.988625 1.281010 0.006718 0.643546 -0.765378 0.085938 0.015625
 36 2.310727 -13.986927 1.265070 0.006718 0.643546 -0.765378 0.085938 0.015625
glock_barrel.bmp
 36 2.828325 -22.078409 5.250406 0.319115 -0.001079 0.947715 0.968750 0.734375
 36 2.962121 -22.077517 5.026581 0.980305 -0.000347 0.197488 0.968750 0.375000
 36 2.826387 -17.488358 5.254178 0.648127 -0.000920 0.761532 0.000000 0.734375
glock_barrel.bmp
 36 2.826387 -17.488358 5.254178 0.648127 -0.000920 0.761532 0.000000 0.734375
 36 2.962121 -22.077517 5.026581 0.980305 -0.000347 0.197488 0.968750 0.375000
 36 2.960463 -17.487514 5.040349 0.983577 0.000066 -0.180489 0.000000 0.375000
glock_barrel.bmp
 36 2.962121 -22.077517 5.026581 0.980305 -0.000347 0.197488 0.968750 0.375000
 36 2.835740 -22.076118 4.800028 0.661213 0.000732 -0.750198 0.968750 0.015625
 36 2.960463 -17.487514 5.040349 0.983577 0.000066 -0.180489 0.000000 0.375000
glock_barrel.bmp
 36 2.960463 -17.487514 5.040349 0.983577 0.000066 -0.180489 0.000000 0.375000
 36 2.835740 -22.076118 4.800028 0.661213 0.000732 -0.750198 0.968750 0.015625
 36 2.834082 -17.486118 4.813797 0.335473 0.000986 -0.942049 0.000000 0.015625
glock_barrel.bmp
 36 2.835740 -22.076118 4.800028 0.661213 0.000732 -0.750198 0.968750 0.015625
 36 2.585839 -22.075686 4.807018 -0.319115 0.001079 -0.947715 0.968750 0.015625
 36 2.834082 -17.486118 4.813797 0.335473 0.000986 -0.942049 0.000000 0.015625
glock_barrel.bmp
 36 2.834082 -17.486118 4.813797 0.335473 0.000986 -0.942049 0.000000 0.015625
 36 2.585839 -22.075686 4.807018 -0.319115 0.001079 -0.947715 0.968750 0.015625
 36 2.583882 -17.495634 4.810739 -0.648127 0.000920 -0.761532 0.000000 0.015625
glock_barrel.bmp
 36 2.585839 -22.075686 4.807018 -0.319115 0.001079 -0.947715 0.968750 0.015625
 36 2.451763 -22.076529 5.020847 -0.980305 0.000347 -0.197488 0.968750 0.375000
 36 2.583882 -17.495634 4.810739 -0.648127 0.000920 -0.761532 0.000000 0.015625
glock_barrel.bmp
 36 2.583882 -17.495634 4.810739 -0.648127 0.000920 -0.761532 0.000000 0.015625
 36 2.451763 -22.076529 5.020847 -0.980305 0.000347 -0.197488 0.968750 0.375000
 36 2.450104 -17.486528 5.034616 -0.983577 -0.000066 0.180489 0.000000 0.375000
glock_barrel.bmp
 36 2.451763 -22.076529 5.020847 -0.980305 0.000347 -0.197488 0.968750 0.375000
 36 2.578144 -22.077925 5.247399 -0.661213 -0.000732 0.750198 0.968750 0.734375
 36 2.450104 -17.486528 5.034616 -0.983577 -0.000066 0.180489 0.000000 0.375000
glock_barrel.bmp
 36 2.450104 -17.486528 5.034616 -0.983577 -0.000066 0.180489 0.000000 0.375000
 36 2.578144 -22.077925 5.247399 -0.661213 -0.000732 0.750198 0.968750 0.734375
 36 2.586481 -17.487942 5.260888 -0.335473 -0.000986 0.942049 0.000000 0.734375
glock_barrel.bmp
 36 2.711940 -22.077030 5.023574 -0.000134 -0.999999 -0.001094 0.968750 0.375000
 36 2.962121 -22.077517 5.026581 -0.000134 -0.999999 -0.001094 0.968750 0.375000
 36 2.828325 -22.078409 5.250406 -0.000134 -0.999999 -0.001094 0.968750 0.734375
glock_barrel.bmp
 36 2.711940 -22.077030 5.023574 -0.000134 -0.999999 -0.001094 0.968750 0.375000
 36 2.835740 -22.076118 4.800028 -0.000134 -0.999999 -0.001094 0.968750 0.015625
 36 2.962121 -22.077517 5.026581 -0.000134 -0.999999 -0.001094 0.968750 0.375000
glock_barrel.bmp
 36 2.711940 -22.077030 5.023574 -0.000134 -0.999999 -0.001094 0.968750 0.375000
 36 2.585839 -22.075686 4.807018 -0.000134 -0.999999 -0.001094 0.968750 0.015625
 36 2.835740 -22.076118 4.800028 -0.000134 -0.999999 -0.001094 0.968750 0.015625
glock_barrel.bmp
 36 2.711940 -22.077030 5.023574 -0.000134 -0.999999 -0.001094 0.968750 0.375000
 36 2.451763 -22.076529 5.020847 -0.000134 -0.999999 -0.001094 0.968750 0.375000
 36 2.585839 -22.075686 4.807018 -0.000134 -0.999999 -0.001094 0.968750 0.015625
glock_barrel.bmp
 36 2.711940 -22.077030 5.023574 -0.000134 -0.999999 -0.001094 0.968750 0.375000
 36 2.578144 -22.077925 5.247399 -0.000134 -0.999999 -0.001094 0.968750 0.734375
 36 2.451763 -22.076529 5.020847 -0.000134 -0.999999 -0.001094 0.968750 0.375000
glock_barrel.bmp
 36 2.711940 -22.077030 5.023574 -0.000134 -0.999999 -0.001094 0.968750 0.375000
 36 2.828325 -22.078409 5.250406 -0.000134 -0.999999 -0.001094 0.968750 0.734375
 36 2.578144 -22.077925 5.247399 -0.000134 -0.999999 -0.001094 0.968750 0.734375
glock_barrel.bmp
 36 2.710281 -17.487030 5.037342 0.000134 0.999999 0.001094 0.000000 0.375000
 36 2.826387 -17.488358 5.254178 0.000134 0.999999 0.001094 0.000000 0.734375
 36 2.960463 -17.487514 5.040349 0.000134 0.999999 0.001094 0.000000 0.375000
glock_barrel.bmp
 36 2.710281 -17.487030 5.037342 0.000134 0.999999 0.001094 0.000000 0.375000
 36 2.586481 -17.487942 5.260888 0.000134 0.999999 0.001094 0.000000 0.734375
 36 2.826387 -17.488358 5.254178 0.000134 0.999999 0.001094 0.000000 0.734375
glock_barrel.bmp
 36 2.710281 -17.487030 5.037342 0.000134 0.999999 0.001094 0.000000 0.375000
 36 2.450104 -17.486528 5.034616 0.000134 0.999999 0.001094 0.000000 0.375000
 36 2.586481 -17.487942 5.260888 0.000134 0.999999 0.001094 0.000000 0.734375
glock_barrel.bmp
 36 2.710281 -17.487030 5.037342 0.000134 0.999999 0.001094 0.000000 0.375000
 36 2.583882 -17.495634 4.810739 0.000134 0.999999 0.001094 0.000000 0.015625
 36 2.450104 -17.486528 5.034616 0.000134 0.999999 0.001094 0.000000 0.375000
glock_barrel.bmp
 36 2.710281 -17.487030 5.037342 0.000134 0.999999 0.001094 0.000000 0.375000
 36 2.834082 -17.486118 4.813797 0.000134 0.999999 0.001094 0.000000 0.015625
 36 2.583882 -17.495634 4.810739 0.000134 0.999999 0.001094 0.000000 0.015625
glock_barrel.bmp
 36 2.710281 -17.487030 5.037342 0.000134 0.999999 0.001094 0.000000 0.375000
 36 2.960463 -17.487514 5.040349 0.000134 0.999999 0.001094 0.000000 0.375000
 36 2.834082 -17.486118 4.813797 0.000134 0.999999 0.001094 0.000000 0.015625
glock_barrel.bmp
 36 2.826387 -17.488358 5.254178 0.648127 -0.000920 0.761532 0.000000 0.984375
 36 2.586481 -17.487942 5.260888 -0.335473 -0.000986 0.942049 0.000000 0.734375
 36 2.828325 -22.078409 5.250406 0.319115 -0.001079 0.947715 0.968750 0.984375
glock_barrel.bmp
 36 2.828325 -22.078409 5.250406 0.319115 -0.001079 0.947715 0.968750 0.984375
 36 2.586481 -17.487942 5.260888 -0.335473 -0.000986 0.942049 0.000000 0.734375
 36 2.578144 -22.077925 5.247399 -0.661213 -0.000732 0.750198 0.968750 0.734375
end
